<?xml version="1.0" standalone="no"?>
<!DOCTYPE svg PUBLIC "-//W3C//DTD SVG 20010904//EN"
 "http://www.w3.org/TR/2001/REC-SVG-20010904/DTD/svg10.dtd">
<svg version="1.0" xmlns="http://www.w3.org/2000/svg"
 width="1014.000000pt" height="1106.000000pt" viewBox="0 0 1014.000000 1106.000000"
 preserveAspectRatio="xMidYMid meet">

<g transform="translate(0.000000,1106.000000) scale(0.100000,-0.100000)"
fill="#00843D" stroke="none">
<path d="M7274 11035 c-31 -31 -37 -9 82 -300 183 -450 280 -601 568 -883
l125 -123 -30 -92 c-125 -384 -522 -615 -889 -518 -105 28 -172 54 -371 146
-683 317 -1421 466 -2117 427 -1779 -100 -3292 -1314 -3787 -3039 -120 -417
-180 -920 -156 -1313 5 -96 56 -665 112 -1265 131 -1399 132 -1483 35 -1869
-111 -437 -362 -847 -704 -1150 -122 -108 -142 -135 -142 -191 0 -64 27 -105
86 -132 47 -21 58 -23 96 -13 24 7 50 17 58 24 8 7 54 34 103 59 201 105 386
247 567 433 309 317 502 673 598 1105 27 119 52 288 52 344 -2 299 -5 1673 -5
2075 0 510 2 554 22 680 43 271 112 528 205 765 57 144 311 651 395 787 85
138 261 368 281 368 4 0 22 -44 41 -98 69 -198 169 -384 299 -552 36 -47 162
-179 280 -295 232 -227 294 -306 376 -478 97 -205 130 -359 129 -617 -1 -202
-21 -343 -83 -577 -130 -491 -390 -991 -692 -1332 -167 -187 -190 -232 -192
-361 l-1 -75 116 -180 c98 -151 146 -242 302 -568 l186 -388 100 -327 c165
-539 192 -675 171 -896 -6 -67 -15 -138 -19 -158 l-9 -38 173 -197 c95 -108
185 -203 200 -210 31 -17 76 -9 100 17 45 50 74 481 56 835 -29 545 -143 1155
-327 1755 -48 156 -58 204 -66 305 -6 78 -6 138 1 170 43 219 76 313 156 440
37 60 105 134 290 319 361 359 564 628 770 1020 234 445 407 1030 441 1493 6
80 15 257 16 305 1 26 8 29 232 103 287 94 431 152 662 264 180 88 383 199
416 229 16 14 26 10 115 -44 283 -171 634 -421 839 -597 121 -105 150 -149
138 -212 -7 -38 -59 -93 -98 -103 -24 -6 -123 10 -413 69 -48 10 -56 15 -99
74 -48 65 -67 80 -87 68 -6 -3 -105 -36 -221 -72 -115 -37 -211 -71 -213 -77
-2 -6 74 -81 168 -168 138 -127 186 -165 243 -192 82 -39 212 -67 271 -59 22
3 210 14 417 25 207 11 385 23 395 27 27 9 73 55 73 72 0 9 43 108 96 221 126
269 127 271 109 314 -8 18 -38 56 -67 84 -60 56 -355 313 -407 353 -32 25 -33
27 -14 40 11 8 68 65 127 128 454 482 787 1060 982 1703 37 122 32 119 134
108 260 -29 581 -49 626 -40 69 13 244 66 253 76 16 18 191 272 191 277 0 3
-143 89 -317 191 l-318 185 -75 166 c-55 122 -80 167 -95 171 -11 2 -159 35
-330 73 -170 38 -322 72 -337 76 -17 4 -48 33 -85 79 -196 246 -490 489 -728
602 -90 42 -493 174 -534 174 -12 0 -33 -11 -47 -25z"/>
</g>
</svg>
