<?xml version="1.0" standalone="no"?>
<!DOCTYPE svg PUBLIC "-//W3C//DTD SVG 20010904//EN"
 "http://www.w3.org/TR/2001/REC-SVG-20010904/DTD/svg10.dtd">
<svg version="1.0" xmlns="http://www.w3.org/2000/svg"
 width="499.000000pt" height="380.000000pt" viewBox="0 0 499.000000 380.000000"
 preserveAspectRatio="xMidYMid meet">

<g transform="translate(0.000000,380.000000) scale(0.100000,-0.100000)"
fill="#000000" stroke="none">
<path d="M2927 3775 c-191 -26 -347 -73 -550 -165 -174 -79 -245 -123 -405
-251 -75 -60 -162 -122 -192 -137 -49 -24 -66 -27 -160 -27 -58 0 -169 6 -248
13 -593 56 -832 -212 -832 -932 l0 -196 -53 -73 c-182 -247 -335 -573 -413
-877 -63 -249 -84 -620 -35 -620 5 0 16 24 24 53 8 28 27 97 42 152 151 559
325 926 557 1180 l57 62 143 6 c258 12 453 73 653 206 38 25 73 47 76 49 4 1
26 -30 49 -70 74 -125 149 -219 274 -344 140 -140 263 -234 434 -332 187 -107
458 -211 660 -252 39 -8 62 -18 62 -26 0 -15 -76 -502 -86 -546 -5 -23 -11
-27 -57 -33 -29 -4 -85 -16 -126 -27 -184 -48 -285 -142 -298 -277 l-5 -56 43
41 c50 47 99 74 178 98 84 25 81 27 81 -69 0 -99 9 -106 55 -44 64 87 161 139
259 139 117 0 148 21 102 69 l-27 28 11 104 c19 182 79 369 147 457 l26 34 73
-4 c138 -9 250 -87 294 -206 30 -80 46 -236 33 -320 -24 -157 -40 -168 -353
-252 -47 -13 -113 -36 -147 -51 -63 -28 -153 -101 -153 -125 0 -17 -4 -17 97
1 105 18 293 31 293 19 0 -5 -7 -31 -15 -58 -17 -55 -20 -106 -6 -106 4 0 45
21 90 46 129 73 228 104 337 104 62 0 96 4 110 14 18 14 18 16 -12 48 -70 73
-88 167 -60 307 44 216 188 405 471 619 358 270 463 442 526 855 29 187 32
516 7 652 -47 249 -155 452 -337 632 -224 222 -645 404 -1106 480 -131 21
-455 25 -588 8z"/>
</g>
</svg>
