<?xml version="1.0" standalone="no"?>
<!DOCTYPE svg PUBLIC "-//W3C//DTD SVG 20010904//EN"
 "http://www.w3.org/TR/2001/REC-SVG-20010904/DTD/svg10.dtd">
<svg version="1.0" xmlns="http://www.w3.org/2000/svg"
 width="748.000000pt" height="672.000000pt" viewBox="0 0 748.000000 672.000000"
 preserveAspectRatio="xMidYMid meet">

<g transform="translate(0.000000,672.000000) scale(0.100000,-0.100000)"
fill="#FFFFFF" stroke="none">
<path d="M1430 6695 c-351 -51 -649 -202 -901 -454 -161 -160 -285 -349 -369
-559 -47 -117 -99 -310 -116 -427 -3 -22 -7 -51 -10 -65 -2 -14 -6 -64 -8
-112 -2 -48 -6 -90 -9 -95 -9 -15 14 -227 33 -309 34 -147 91 -243 163 -278
28 -13 40 -13 73 -3 36 11 105 71 161 140 32 40 48 26 63 -56 48 -272 153
-479 269 -532 37 -16 42 -16 91 0 59 20 157 105 217 189 44 61 61 76 78 69 8
-2 37 -46 66 -96 l52 -92 0 -187 0 -187 -45 -68 c-83 -124 -164 -288 -188
-383 -5 -19 -14 -53 -20 -75 -16 -60 -20 -77 -26 -115 -3 -19 -7 -46 -10 -60
-34 -185 8 -515 91 -720 193 -473 582 -824 1070 -965 135 -39 230 -53 435 -67
102 -6 188 -16 192 -21 11 -18 -4 -40 -87 -129 -45 -48 -103 -119 -129 -158
-48 -71 -129 -235 -139 -280 -3 -14 -11 -43 -17 -65 -9 -36 -16 -67 -24 -115
-1 -8 -6 -36 -10 -62 -12 -70 11 -289 32 -310 19 -19 167 -40 192 -27 8 4 67
19 130 34 128 29 129 30 220 75 102 51 199 119 277 193 153 145 253 293 317
468 l38 106 185 7 c102 4 221 14 264 22 120 23 265 77 423 158 78 40 158 76
177 79 19 4 131 13 249 21 243 17 372 39 542 96 256 85 436 197 629 389 190
191 296 363 379 617 91 280 102 537 34 807 -44 176 -103 307 -207 462 l-60 89
0 176 -1 177 53 96 c30 53 59 98 66 101 24 9 51 -5 70 -36 36 -61 156 -177
211 -204 51 -25 57 -26 99 -14 53 15 108 65 148 133 35 59 98 252 122 372 17
83 27 104 48 105 5 0 38 -32 75 -71 78 -83 112 -103 159 -96 55 9 90 43 128
121 42 87 70 204 85 351 12 117 -1 289 -35 472 -81 433 -312 816 -646 1066
-310 233 -693 345 -1053 309 -148 -15 -326 -54 -426 -93 -195 -77 -401 -231
-525 -392 -27 -36 -57 -67 -65 -69 -8 -2 -58 11 -110 30 -212 75 -409 114
-684 137 -153 12 -198 12 -344 0 -92 -8 -210 -22 -262 -30 -117 -19 -372 -85
-465 -120 l-68 -25 -46 52 c-253 293 -490 433 -831 492 -134 23 -353 29 -470
11z"/>
</g>
</svg>
