<?xml version="1.0" standalone="no"?>
<!DOCTYPE svg PUBLIC "-//W3C//DTD SVG 20010904//EN"
 "http://www.w3.org/TR/2001/REC-SVG-20010904/DTD/svg10.dtd">
<svg version="1.0" xmlns="http://www.w3.org/2000/svg"
 width="668.000000pt" height="668.000000pt" viewBox="0 0 668.000000 668.000000"
 preserveAspectRatio="xMidYMid meet">

<g transform="translate(0.000000,668.000000) scale(0.100000,-0.100000)"
fill="#000095" stroke="none">
<path d="M3326 6643 c-3 -10 -87 -323 -186 -697 -187 -697 -188 -705 -140
-691 127 36 583 37 680 1 49 -18 46 -6 -140 690 -214 801 -189 714 -200 714
-5 0 -11 -8 -14 -17z"/>
<path d="M1670 6220 c0 -22 371 -1395 379 -1403 5 -5 55 27 112 70 166 126
361 233 512 282 20 7 37 18 37 24 0 13 -1020 1037 -1033 1037 -4 0 -7 -5 -7
-10z"/>
<path d="M4482 5717 c-281 -281 -512 -518 -512 -525 0 -6 6 -12 13 -12 26 0
242 -100 334 -155 54 -32 144 -94 201 -138 65 -49 108 -75 114 -69 9 9 378
1372 378 1398 0 8 -3 14 -8 14 -4 0 -238 -231 -520 -513z"/>
<path d="M3173 5024 c-745 -90 -1304 -582 -1479 -1299 -41 -170 -58 -357 -44
-499 23 -249 78 -445 179 -644 174 -341 417 -584 750 -752 268 -134 613 -205
875 -180 443 42 822 219 1109 519 220 230 403 586 443 861 12 81 13 94 18 145
3 28 8 77 11 110 9 78 -18 309 -49 440 -124 509 -432 897 -895 1129 -194 98
-389 152 -625 175 -131 13 -149 13 -293 -5z"/>
<path d="M450 5002 c0 -12 1024 -1032 1037 -1032 6 0 17 17 24 38 49 150 156
345 282 511 43 57 75 107 70 112 -8 8 -1381 379 -1403 379 -5 0 -10 -3 -10 -8z"/>
<path d="M5513 4821 c-380 -102 -694 -189 -698 -193 -3 -3 29 -53 72 -109 126
-166 233 -361 282 -511 7 -21 18 -38 24 -38 13 0 1037 1020 1037 1033 0 4 -6
6 -12 6 -7 -1 -324 -85 -705 -188z"/>
<path d="M711 3534 c-377 -102 -687 -187 -690 -189 -2 -3 -2 -7 0 -10 3 -2
317 -88 699 -190 701 -189 722 -193 705 -148 -21 58 -36 432 -22 538 3 28 9
69 12 93 2 24 7 47 10 52 8 12 -5 40 -19 39 -6 0 -319 -84 -695 -185z"/>
<path d="M5258 3708 c-3 -7 1 -53 9 -103 25 -153 17 -527 -12 -608 -3 -7 -1
-19 4 -26 8 -13 123 15 703 171 462 123 693 189 693 198 0 9 -228 74 -685 196
-377 101 -690 184 -696 184 -7 0 -14 -6 -16 -12z"/>
<path d="M960 2195 c-283 -283 -511 -517 -507 -521 7 -8 1397 362 1410 375 5
5 -27 55 -70 113 -44 57 -105 146 -136 198 -54 91 -157 311 -157 338 0 6 -6
12 -13 12 -6 0 -244 -232 -527 -515z"/>
<path d="M5180 2698 c0 -26 -99 -238 -154 -333 -32 -53 -94 -145 -138 -203
-44 -57 -76 -108 -71 -112 13 -11 1405 -381 1412 -375 7 8 -1021 1035 -1036
1035 -7 0 -13 -6 -13 -12z"/>
<path d="M2045 1858 c-22 -63 -374 -1402 -370 -1406 8 -8 1035 1019 1035 1035
0 6 -17 17 -37 24 -151 48 -346 156 -511 281 -56 43 -105 78 -107 78 -3 0 -8
-6 -10 -12z"/>
<path d="M4521 1795 c-52 -40 -141 -101 -198 -135 -98 -59 -314 -160 -340
-160 -7 0 -13 -6 -13 -13 0 -15 1027 -1043 1035 -1035 8 8 -369 1411 -381
1414 -5 2 -51 -30 -103 -71z"/>
<path d="M2971 1420 c-13 -7 16 -122 171 -702 131 -490 189 -693 199 -693 10
0 67 199 196 680 100 374 183 687 183 696 0 23 -21 29 -66 19 -74 -17 -309
-32 -394 -25 -93 7 -236 24 -260 30 -8 3 -22 0 -29 -5z"/>
</g>
</svg>
