<?xml version="1.0" standalone="no"?>
<!DOCTYPE svg PUBLIC "-//W3C//DTD SVG 20010904//EN"
 "http://www.w3.org/TR/2001/REC-SVG-20010904/DTD/svg10.dtd">
<svg version="1.0" xmlns="http://www.w3.org/2000/svg"
 id="australia-img" width="3168.000000pt" height="3168.000000pt" viewBox="0 0 3168.000000 3168.000000"
 preserveAspectRatio="xMidYMid meet">

<g transform="translate(0.000000,3168.000000) scale(0.100000,-0.100000)">
<g id="qld-img">
<path d="M23555 29460 c-27 -22 -74 -56 -103 -75 -43 -29 -57 -47 -83 -103
-28 -62 -30 -73 -27 -157 4 -87 3 -92 -39 -195 -24 -58 -55 -141 -69 -185 -62
-200 -119 -343 -179 -450 -36 -64 -74 -143 -85 -176 -12 -33 -26 -69 -32 -79
-9 -13 -8 -36 4 -95 13 -71 13 -82 -3 -130 -12 -37 -31 -65 -65 -98 l-49 -45
-2 -114 c-2 -123 -26 -216 -75 -294 -31 -48 -78 -158 -104 -239 -27 -86 -26
-223 3 -287 21 -47 22 -53 13 -325 -11 -337 -22 -486 -55 -742 -65 -513 -111
-724 -223 -1026 -77 -208 -122 -301 -190 -398 -59 -84 -291 -338 -341 -372
-16 -11 -48 -34 -72 -51 -42 -30 -249 -104 -290 -104 -10 0 -22 6 -26 14 -4 7
-106 46 -226 85 -230 77 -355 138 -430 209 -56 53 -113 145 -138 221 -12 36
-31 77 -43 90 -26 29 -311 167 -432 209 -49 17 -123 36 -164 43 -41 6 -88 18
-103 26 -16 8 -34 12 -40 10 -7 -3 -29 11 -49 31 l-37 35 -5 -34 c-2 -19 -64
-1746 -135 -3839 -72 -2093 -133 -3839 -137 -3881 l-5 -76 628 -7 c345 -3 828
-9 1071 -12 l444 -7 15 -32 c14 -30 12 -94 -21 -736 -31 -601 -79 -1769 -72
-1776 1 -2 1053 -88 2337 -193 1284 -104 2550 -213 2814 -240 341 -36 489 -48
511 -41 17 5 53 30 79 55 89 85 262 173 410 210 144 36 335 38 458 5 143 -37
321 -119 401 -183 22 -17 66 -49 98 -72 32 -22 118 -96 191 -165 72 -69 146
-135 162 -147 63 -46 237 -36 348 20 54 27 114 84 145 137 39 68 140 177 201
218 64 43 171 82 223 83 20 0 101 -16 179 -35 167 -41 197 -42 389 -14 198 29
190 25 191 101 1 35 4 74 8 88 11 39 -24 270 -51 345 -6 17 -44 80 -85 140
-95 144 -98 159 -41 210 23 22 53 47 66 55 35 22 44 120 43 443 -1 157 3 295
9 316 5 21 27 54 51 76 39 39 40 41 34 89 -8 61 -27 100 -74 149 l-36 38 3
106 c4 156 -21 229 -119 343 l-48 55 -7 105 c-5 83 -13 120 -35 174 -40 94
-110 172 -199 221 -92 50 -124 86 -114 129 12 53 7 171 -10 228 -23 80 -71
146 -143 195 -50 34 -72 42 -122 47 -33 3 -79 15 -102 27 -93 47 -216 189
-280 322 -39 82 -41 90 -51 232 -7 106 -6 195 3 323 15 225 14 261 -8 288 -10
13 -123 115 -251 229 -128 113 -243 223 -256 243 -29 46 -46 60 -84 71 -49 15
-72 -9 -72 -73 0 -36 -5 -58 -15 -66 -24 -20 -106 -7 -160 24 -42 25 -52 39
-97 131 -57 118 -58 123 -83 485 -27 400 -34 428 -157 641 -99 174 -135 257
-120 278 51 69 53 123 7 187 -19 27 -48 74 -64 104 -16 30 -49 76 -73 103 -43
47 -43 47 -111 49 -60 1 -73 5 -107 32 -25 20 -43 45 -50 69 -16 54 -85 121
-146 140 -27 9 -77 18 -111 20 -62 4 -62 4 -143 79 l-80 76 0 85 c0 77 -2 88
-26 116 -56 67 -83 76 -294 100 -196 23 -286 73 -447 253 -180 202 -189 229
-143 446 16 79 30 165 30 190 0 60 -29 108 -76 128 -20 8 -39 25 -44 40 -15
38 -12 139 5 181 13 33 14 71 7 253 -8 204 -10 217 -34 260 -14 25 -92 176
-172 335 -223 440 -231 481 -199 952 14 207 15 267 5 415 -19 264 -29 354 -45
385 -38 73 -208 208 -357 283 -106 54 -166 101 -186 148 -9 21 -20 72 -24 114
-8 72 -30 124 -65 151 -14 11 -57 1 -118 -26 -28 -13 -77 -32 -107 -42 -30
-10 -85 -32 -122 -50 l-66 -31 -64 15 -63 16 -8 55 c-18 118 -49 235 -80 303
l-32 72 -2 215 c-1 156 3 244 15 320 9 58 16 161 16 230 0 122 -1 127 -38 220
-53 131 -98 201 -171 265 -73 64 -92 98 -100 185 -6 56 -3 75 20 135 37 97 30
140 -35 208 -27 28 -53 60 -58 71 -15 32 -59 180 -82 279 -28 120 -112 365
-151 438 -33 62 -132 163 -176 180 -13 5 -52 9 -86 9 -57 0 -66 -3 -112 -40z"/>
<path d="M20847 24876 c-105 -28 -177 -112 -177 -204 0 -90 41 -122 160 -122
61 0 126 22 222 75 36 19 89 42 119 51 30 8 60 23 67 32 18 24 15 96 -6 122
-39 48 -272 76 -385 46z"/>
<path d="M30903 16778 c-46 -50 -114 -189 -124 -251 -5 -34 -17 -92 -25 -129
-16 -65 -15 -141 2 -241 7 -41 30 -57 83 -57 65 0 158 152 207 340 14 52 34
121 45 154 l20 58 -21 43 c-24 49 -78 90 -131 99 -29 5 -39 2 -56 -16z"/>
</g>
<g id="nt-img">
<path d="M14985 29360 c-66 -4 -150 -8 -186 -9 -63 -1 -67 -3 -71 -26 -6 -30
3 -43 66 -90 58 -44 70 -48 206 -75 63 -13 119 -30 140 -44 19 -13 52 -28 72
-35 25 -8 48 -27 71 -59 34 -47 34 -47 48 -234 l14 -186 -50 -7 c-114 -15
-236 -44 -267 -63 -19 -12 -61 -28 -94 -35 -53 -12 -99 -11 -439 14 -462 34
-480 35 -541 9 -69 -30 -285 -183 -379 -270 -45 -41 -122 -111 -173 -155 -50
-44 -96 -91 -102 -105 -6 -14 -30 -56 -53 -94 -37 -63 -41 -75 -41 -140 -1
-49 6 -92 22 -141 l24 -69 -64 -57 c-35 -32 -81 -65 -103 -73 -57 -23 -85 -68
-85 -137 0 -46 -4 -59 -25 -79 -28 -26 -45 -76 -45 -131 0 -51 -72 -156 -120
-176 -82 -34 -106 -50 -128 -83 -22 -32 -24 -43 -20 -129 l4 -94 45 -38 c24
-21 72 -52 105 -69 34 -16 68 -37 75 -46 8 -10 14 -56 17 -130 l4 -114 -28
-11 c-20 -7 -72 -9 -162 -4 -110 6 -144 4 -200 -11 -37 -9 -74 -23 -83 -31
-36 -31 -42 -116 -20 -313 5 -47 77 -2069 161 -4495 83 -2425 153 -4419 155
-4431 l5 -21 2251 -6 c1239 -4 2744 -7 3345 -7 l1093 0 5 43 c3 23 73 1766
156 3872 82 2107 151 3862 154 3900 l5 70 -502 373 c-276 205 -731 533 -1012
731 -281 197 -516 369 -524 383 -20 34 -7 62 90 208 78 118 177 277 198 317 6
13 29 66 51 118 21 52 50 108 63 125 14 16 33 49 42 74 17 44 17 44 -15 127
-17 46 -36 109 -41 141 -9 53 -7 62 17 110 33 65 148 185 185 193 15 3 54 -1
87 -9 63 -17 169 -21 189 -8 6 4 19 48 28 97 26 137 37 167 76 210 20 22 49
58 65 80 33 47 100 127 161 194 33 38 83 134 83 162 0 4 -49 51 -110 106 -125
113 -156 127 -305 138 -111 7 -178 -8 -183 -43 -2 -13 1 -29 7 -36 18 -22 51
-128 53 -170 1 -30 -4 -43 -21 -58 -13 -10 -29 -18 -37 -18 -36 0 -137 50
-244 120 -215 143 -240 151 -475 160 -206 8 -226 12 -795 164 -198 53 -219 61
-475 164 -110 44 -261 104 -335 133 -74 28 -178 71 -230 94 -103 46 -369 143
-465 170 -33 9 -88 30 -123 46 -67 31 -60 30 -267 19z"/>
<path d="M13317 29262 l-98 -99 -4 -92 c-4 -91 -4 -92 -49 -152 -46 -62 -73
-126 -63 -152 13 -35 149 -23 277 26 158 60 321 61 467 3 108 -42 142 -44 203
-13 35 17 46 29 51 54 7 35 57 98 161 203 80 80 104 121 112 185 8 59 -16 108
-62 127 -39 15 -210 -15 -336 -59 l-99 -36 -119 11 c-100 9 -131 17 -196 46
-137 61 -132 63 -245 -52z"/>
<path d="M18592 27280 c-44 -10 -48 -15 -74 -86 -19 -51 -23 -85 -26 -245 l-4
-186 37 -30 c60 -50 159 -66 325 -53 158 12 168 17 152 81 -8 32 -8 54 1 86
16 62 5 75 -69 78 -33 1 -69 5 -81 9 -18 6 -19 10 -9 39 7 17 26 60 44 94 38
73 39 90 12 144 -24 47 -40 54 -140 62 -41 4 -88 8 -105 11 -16 3 -45 1 -63
-4z"/>
</g>
<path id="wa-img" d="M10658 27021 c-89 -25 -121 -40 -204 -101 -101 -75 -217 -128 -305
-140 -132 -18 -189 -38 -283 -98 -117 -73 -210 -167 -320 -320 -91 -126 -129
-165 -252 -257 -80 -61 -203 -188 -245 -254 -16 -24 -40 -75 -55 -113 -21 -56
-32 -72 -62 -89 -188 -103 -240 -159 -267 -287 -25 -116 -45 -173 -70 -196
-13 -12 -79 -50 -147 -86 -135 -70 -204 -131 -281 -245 -22 -33 -50 -71 -63
-85 -13 -14 -33 -47 -45 -75 -20 -44 -23 -67 -23 -205 -1 -85 1 -245 4 -355 2
-110 1 -224 -4 -252 -7 -47 -11 -53 -32 -53 -37 0 -107 78 -149 167 -20 42
-56 109 -80 149 -24 40 -67 117 -95 171 -43 81 -61 105 -103 136 -54 39 -99
47 -151 27 -14 -5 -62 -44 -107 -87 -87 -83 -178 -212 -255 -363 -55 -106 -74
-178 -80 -305 -6 -111 0 -135 85 -335 36 -85 40 -104 41 -178 0 -51 -6 -96
-15 -118 -18 -43 -119 -168 -230 -284 -141 -147 -231 -294 -289 -470 -47 -146
-89 -232 -159 -325 -72 -97 -113 -133 -377 -330 -113 -85 -213 -163 -222 -174
-10 -12 -29 -21 -42 -21 -13 0 -43 -7 -66 -15 -24 -8 -113 -29 -199 -45 -86
-17 -201 -39 -256 -50 -55 -10 -180 -26 -277 -34 -220 -18 -265 -35 -322 -121
-65 -99 -200 -177 -333 -194 -50 -6 -111 -23 -160 -43 -69 -29 -90 -45 -183
-139 -91 -91 -118 -112 -197 -152 -112 -55 -275 -95 -418 -102 -232 -10 -441
-58 -556 -128 -192 -116 -449 -368 -588 -575 -27 -41 -59 -73 -88 -90 -127
-76 -406 -252 -458 -290 -211 -152 -305 -307 -305 -503 0 -65 -4 -85 -31 -137
-32 -65 -121 -155 -147 -150 -8 2 -24 15 -35 30 -18 24 -21 43 -21 130 -1 57
3 150 8 208 7 88 6 111 -7 135 -25 49 -52 68 -84 60 -69 -17 -193 -207 -212
-325 -41 -250 -44 -277 -31 -346 16 -93 44 -174 81 -235 36 -58 66 -145 83
-244 11 -67 8 -93 -68 -626 l-80 -557 58 -68 c32 -38 111 -125 176 -194 119
-127 249 -294 356 -455 33 -49 83 -124 112 -167 51 -75 102 -194 102 -238 0
-35 -62 -90 -100 -90 -34 0 -132 62 -180 115 -14 15 -52 46 -85 68 -33 23 -81
61 -107 85 -42 39 -50 43 -75 35 -26 -9 -28 -14 -27 -59 0 -57 43 -156 130
-302 84 -140 83 -187 -2 -198 -50 -6 -88 -25 -92 -46 -2 -9 18 -41 45 -70 26
-29 171 -221 322 -425 l273 -371 4 -99 c3 -109 30 -225 68 -301 24 -47 174
-243 196 -257 6 -4 37 -41 68 -84 31 -42 79 -101 107 -132 27 -31 82 -96 122
-145 40 -49 119 -142 176 -207 107 -122 178 -231 210 -325 21 -65 36 -211 37
-377 1 -69 8 -160 19 -215 l17 -95 283 -459 c155 -252 298 -481 316 -508 44
-63 71 -153 96 -320 11 -73 24 -153 29 -178 5 -25 9 -75 10 -111 0 -66 29
-228 49 -282 6 -16 11 -48 11 -73 0 -25 10 -73 22 -107 18 -55 21 -84 21 -247
l1 -185 -33 -82 c-40 -102 -48 -105 -193 -92 -57 5 -123 11 -148 12 -44 2 -45
1 -48 -29 -2 -18 11 -108 28 -200 17 -93 38 -209 46 -259 8 -49 18 -93 22 -97
6 -5 383 -178 827 -379 l130 -59 375 -29 375 -28 292 94 293 95 76 65 c122
105 215 202 280 293 l60 85 144 33 c163 36 185 50 225 137 26 58 136 238 165
272 11 13 28 23 37 23 10 0 573 61 1252 134 1059 115 1238 137 1260 153 14 11
155 196 312 412 157 215 305 414 329 442 33 39 151 118 559 377 284 181 530
333 546 340 19 7 181 13 449 18 265 4 433 10 456 18 54 16 1139 629 1140 643
0 6 4 13 9 15 6 2 -97 2759 -259 6943 -148 3817 -269 6941 -269 6941 -1 1 -30
21 -66 44 -74 49 -369 179 -423 187 -43 7 -225 87 -262 115 -34 26 -222 211
-289 284 -94 103 -179 171 -274 219 -88 44 -97 47 -192 51 -77 3 -115 0 -167
-15z"/>
<g id="sa-img">
<path d="M12762 16743 c-3 -71 175 -4493 180 -4498 2 -2 302 12 668 31 781 41
888 40 985 -8 33 -17 88 -50 123 -75 34 -24 84 -54 110 -65 26 -12 65 -33 87
-48 22 -15 65 -40 95 -55 30 -15 80 -43 110 -61 31 -19 81 -39 112 -46 54 -11
58 -11 95 14 21 14 48 28 60 32 42 14 165 -12 263 -55 62 -26 137 -49 215 -65
142 -27 158 -32 281 -80 126 -49 258 -136 318 -211 54 -68 77 -133 106 -301
26 -155 40 -212 51 -212 5 0 18 -10 29 -23 11 -13 64 -45 118 -72 135 -69 202
-140 346 -368 71 -113 105 -177 155 -296 54 -129 67 -171 110 -376 37 -180 63
-252 104 -291 28 -28 41 -32 100 -37 l67 -5 38 43 c20 23 53 70 72 104 19 34
54 89 77 124 23 34 53 83 67 108 26 49 190 230 287 317 75 69 133 97 247 123
l97 22 175 245 c131 183 192 279 240 376 72 146 119 218 156 243 28 18 21 25
96 -85 68 -98 113 -262 88 -321 -11 -29 -16 -31 -60 -31 -57 0 -75 -14 -90
-71 -8 -29 -8 -50 -1 -71 16 -45 13 -90 -6 -118 -9 -14 -78 -88 -152 -166
-113 -117 -143 -154 -179 -225 -24 -46 -47 -102 -53 -124 -5 -22 -14 -139 -19
-260 -5 -121 -15 -245 -22 -275 l-13 -55 -72 -25 c-77 -27 -114 -55 -133 -101
-16 -38 6 -74 58 -96 20 -8 60 -26 88 -39 59 -28 169 -32 283 -12 82 15 122
43 156 111 22 46 25 63 25 166 0 147 13 230 51 352 42 131 60 159 102 159 34
0 70 -20 99 -55 19 -22 109 -201 126 -250 32 -90 54 -207 54 -278 0 -112 -33
-176 -160 -315 -127 -137 -182 -215 -182 -256 0 -40 5 -46 68 -84 60 -36 73
-38 133 -16 40 14 157 41 285 66 l51 10 193 -141 c177 -129 196 -147 229 -204
72 -121 90 -189 101 -375 5 -92 14 -196 20 -232 5 -36 10 -122 10 -192 0 -187
25 -299 99 -457 33 -69 70 -151 84 -181 13 -30 56 -107 94 -170 77 -125 119
-160 192 -160 20 0 81 -7 136 -17 123 -20 152 -15 159 30 15 94 597 10022 588
10025 -5 1 -8 12 -5 22 3 11 4 20 2 20 -8 1 -8284 29 -8564 30 l-301 0 -2 -67z"/>
<path d="M18590 8865 c-63 -7 -163 -18 -221 -24 -58 -6 -129 -18 -157 -26 -63
-19 -82 -50 -90 -143 -4 -58 -3 -65 22 -91 52 -54 122 -66 376 -65 174 0 243
4 304 17 92 21 101 25 140 66 24 25 29 40 34 99 l4 69 -38 40 c-62 65 -172 82
-374 58z"/>
</g>
<path id="nsw-img" d="M21570 14201 c-5 -11 -10 -55 -11 -98 0 -43 -55 -958 -123 -2033 -88
-1401 -120 -1958 -112 -1966 6 -6 51 -16 100 -22 65 -8 100 -19 135 -39 46
-28 47 -28 221 -28 174 0 175 0 233 -30 33 -16 79 -51 105 -80 61 -67 143
-219 172 -318 33 -111 65 -128 155 -85 l45 22 147 -59 c81 -33 158 -69 172
-81 23 -19 26 -33 38 -159 11 -125 16 -145 50 -218 35 -74 44 -86 113 -137 42
-30 118 -81 170 -112 112 -67 198 -134 233 -180 14 -18 62 -103 107 -188 93
-175 119 -214 164 -241 31 -19 110 -26 132 -11 19 12 44 70 54 125 6 28 18 58
27 65 22 16 231 16 305 1 29 -6 100 -35 158 -64 58 -29 141 -67 185 -84 100
-40 321 -86 540 -112 146 -18 199 -20 380 -13 319 11 357 10 409 -16 97 -47
103 -67 115 -408 7 -181 10 -205 28 -230 20 -27 40 -41 368 -265 274 -188 437
-301 540 -377 85 -62 116 -81 157 -94 20 -6 43 31 77 126 56 152 81 296 86
496 2 88 11 188 21 235 38 187 135 405 272 609 102 152 163 221 307 350 123
110 177 168 181 195 1 6 7 27 12 45 6 18 16 76 23 128 19 152 75 264 211 420
121 140 170 216 225 350 121 291 270 503 451 637 69 52 219 142 307 186 22 10
61 35 88 53 26 19 51 34 55 34 15 0 91 85 102 115 7 19 9 56 5 100 l-6 71 86
84 c261 255 258 252 391 529 57 119 117 239 134 268 l31 51 -7 230 c-7 219 -6
232 15 302 12 40 77 177 143 304 67 127 144 276 172 331 28 56 70 123 93 150
23 28 71 98 107 158 93 154 101 198 88 452 -6 107 -13 199 -17 205 -16 26 -77
28 -247 8 -185 -21 -274 -19 -335 8 -51 22 -177 34 -236 23 -66 -12 -171 -66
-227 -116 -25 -23 -68 -75 -95 -115 -91 -137 -108 -154 -193 -186 -112 -44
-211 -57 -301 -42 l-72 12 -87 88 c-98 98 -261 237 -337 285 -76 48 -232 129
-307 158 -296 118 -691 46 -934 -170 l-84 -76 -103 6 c-134 7 -340 24 -502 42
-71 8 -191 19 -266 25 -75 6 -161 15 -191 20 -85 16 -316 38 -628 60 -157 11
-321 24 -365 29 -93 12 -255 25 -555 46 -118 9 -260 20 -315 25 -55 5 -152 14
-215 20 -179 16 -2482 190 -2523 190 -26 0 -39 -6 -47 -19z m5250 -5561 c55
-28 95 -97 86 -150 -9 -57 -43 -130 -71 -152 -64 -50 -70 -69 -83 -242 -8
-112 -11 -121 -36 -143 -35 -30 -53 -29 -108 6 -86 55 -168 223 -168 346 0 59
35 166 70 215 34 48 99 93 169 116 83 28 93 28 141 4z"/>
<path id="act-img" d="M26715 8600 c-16 -4 -42 -11 -56 -14 -14 -3 -53 -33 -86 -66 -65 -64
-74 -85 -89 -216 -11 -92 29 -196 104 -270 51 -49 93 -59 112 -24 6 10 11 75
13 144 l2 125 36 38 c70 74 129 155 129 178 0 61 -97 123 -165 105z"/>
<path id="vic-img" d="M21313 10029 c-6 -9 -45 -633 -102 -1669 -50 -910 -91 -1663 -91
-1672 0 -10 17 -26 39 -37 21 -11 95 -79 162 -151 68 -72 135 -138 147 -146
37 -24 68 -10 148 68 l73 70 213 -112 c117 -63 334 -178 481 -256 148 -79 283
-148 301 -153 51 -14 207 43 427 156 174 89 201 107 301 195 60 53 145 135
189 182 45 47 86 86 91 86 6 0 26 -11 44 -25 53 -40 53 -75 4 -180 -23 -50
-55 -106 -71 -126 -38 -48 -37 -74 5 -114 33 -31 124 -65 173 -65 37 0 196
-87 260 -142 34 -29 88 -82 120 -117 77 -86 133 -121 192 -121 64 0 128 20
432 132 66 24 258 160 369 262 67 61 219 184 252 204 52 32 167 70 279 92 107
21 659 43 944 38 141 -3 153 -2 198 21 51 25 141 101 158 133 16 30 -20 63
-216 195 -93 63 -257 174 -363 246 -105 73 -262 179 -347 237 -95 64 -157 113
-160 125 -2 11 -14 128 -25 260 -11 132 -23 254 -25 270 -10 55 -36 76 -111
91 -81 16 -224 18 -274 4 -19 -5 -126 -11 -238 -14 l-202 -6 -198 40 c-271 56
-465 121 -566 193 -52 37 -173 67 -269 67 -115 0 -127 -7 -127 -70 0 -62 -24
-124 -57 -145 -14 -9 -49 -19 -78 -22 -111 -12 -196 63 -290 253 -100 202
-231 353 -361 417 -114 56 -222 126 -252 165 -16 20 -42 62 -58 92 -26 49 -29
66 -31 162 -1 59 -6 119 -10 135 -4 15 -6 33 -5 39 3 14 -210 118 -260 128
-31 6 -46 2 -81 -19 -64 -37 -92 -33 -143 19 -33 35 -45 57 -55 103 -6 32 -36
108 -65 170 -47 99 -61 118 -114 162 -94 78 -143 88 -390 80 -68 -3 -83 1
-155 33 -91 42 -194 59 -212 37z"/>
<g id="tas-img">
<path d="M22873 5296 c-67 -59 -73 -80 -73 -261 l0 -155 36 -40 c62 -68 115
-48 195 72 42 64 53 101 64 213 5 58 3 80 -14 126 -29 76 -45 88 -109 87 -47
-1 -58 -6 -99 -42z"/>
<path d="M25423 4898 c-45 -49 -56 -173 -22 -248 11 -24 31 -59 44 -76 14 -18
34 -57 45 -87 25 -66 95 -137 136 -137 41 0 134 51 150 82 21 41 17 124 -12
223 -30 104 -62 169 -102 207 -60 58 -199 79 -239 36z"/>
<path d="M23373 4302 c-15 -2 -25 -13 -29 -30 -3 -15 -21 -73 -40 -129 -57
-169 -47 -315 36 -553 22 -63 55 -139 73 -170 19 -30 52 -96 74 -145 109 -238
146 -399 118 -506 -28 -103 -20 -157 48 -364 50 -149 86 -235 169 -400 l106
-210 54 -27 c46 -24 69 -28 182 -34 120 -6 132 -8 163 -33 19 -14 43 -41 54
-58 39 -63 113 -32 148 62 31 83 76 167 103 192 13 12 39 29 58 37 20 8 43 23
51 33 18 20 42 90 58 171 6 29 17 65 25 80 19 37 106 80 187 92 98 15 134 29
174 70 39 40 93 157 106 230 16 94 53 176 122 273 40 56 87 110 109 125 21 14
35 28 30 31 -12 8 71 591 98 686 30 106 27 124 -28 197 -27 35 -60 69 -74 75
-14 7 -63 13 -109 14 -76 2 -89 -1 -140 -28 -31 -17 -74 -43 -95 -59 l-38 -29
-230 0 c-177 -1 -250 -5 -315 -18 -46 -9 -85 -17 -86 -17 -2 0 -25 -18 -50
-40 -41 -36 -52 -40 -99 -40 -34 0 -58 5 -65 14 -7 8 -24 17 -38 21 -15 3 -56
20 -92 37 -36 17 -83 37 -105 44 -21 8 -63 35 -92 59 -29 25 -86 61 -126 80
-74 35 -167 89 -274 158 -80 51 -168 103 -185 108 -8 3 -24 3 -36 1z"/>
</g>
</g>
</svg>
