<?xml version="1.0" standalone="no"?>
<!DOCTYPE svg PUBLIC "-//W3C//DTD SVG 20010904//EN"
 "http://www.w3.org/TR/2001/REC-SVG-20010904/DTD/svg10.dtd">
<svg version="1.0" xmlns="http://www.w3.org/2000/svg" id="newzealand-img"
 width="3168.000000pt" height="3168.000000pt" viewBox="0 0 3168.000000 3168.000000"
 preserveAspectRatio="xMidYMid meet">

<g transform="translate(0.000000,3168.000000) scale(0.100000,-0.100000)">
<path id="ntl-img" d="M15635 31044 c-63 -27 -103 -31 -219 -19 -42 5 -96 3 -142 -5 -88
-15 -94 -29 -51 -105 65 -111 140 -188 318 -322 55 -43 101 -97 134 -163 10
-19 55 -73 100 -120 92 -96 108 -117 185 -246 30 -51 96 -152 146 -226 88
-130 90 -135 104 -220 10 -67 11 -110 3 -181 -10 -92 -11 -95 -71 -184 -34
-49 -62 -96 -62 -104 0 -27 121 -223 178 -288 32 -36 70 -83 86 -104 15 -21
47 -47 69 -58 l42 -21 59 22 c35 13 91 49 139 88 144 116 234 162 319 162 60
0 88 -90 46 -146 -28 -39 -161 -174 -170 -174 -4 0 -45 -29 -90 -64 l-83 -63
2 -50 c3 -67 35 -137 91 -198 86 -93 187 -216 234 -287 45 -68 90 -128 209
-281 31 -40 115 -133 187 -207 101 -105 141 -154 178 -220 26 -47 65 -111 86
-144 85 -126 248 -422 248 -449 0 -39 65 -184 94 -210 55 -49 78 -57 125 -45
46 12 74 43 85 95 10 44 -45 206 -92 275 -70 100 -103 167 -93 187 21 39 37
44 86 26 72 -28 124 -92 247 -303 15 -26 30 -69 34 -95 13 -90 64 -135 158
-136 32 -1 47 6 86 42 57 50 178 143 223 170 39 24 240 193 284 239 17 18 33
40 34 48 6 31 -65 145 -137 221 -59 62 -74 84 -74 109 0 58 -86 229 -136 271
-25 20 -85 105 -123 172 -27 47 -32 66 -28 95 6 37 45 82 72 82 7 0 53 -40
102 -88 105 -105 162 -137 225 -127 63 11 74 19 88 71 16 57 0 135 -35 174
-50 55 -113 167 -125 220 -23 108 -32 133 -75 222 -32 67 -42 99 -38 119 6 32
-32 106 -71 136 -13 11 -50 66 -82 124 -83 150 -191 287 -261 330 l-33 21 -39
-24 c-21 -13 -74 -47 -117 -75 l-78 -53 -39 73 c-83 153 -109 179 -172 179
-20 0 -38 5 -39 12 -2 6 -13 40 -25 76 -12 36 -21 76 -21 90 0 45 -37 90 -95
116 -32 15 -61 37 -71 53 -35 59 -126 85 -261 75 l-92 -6 -78 74 c-123 117
-224 144 -319 86 -29 -18 -53 -23 -94 -23 -105 2 -173 59 -224 190 -15 39 -39
85 -52 103 -21 27 -32 32 -65 32 -22 0 -62 -10 -89 -21 -61 -26 -83 -21 -145
33 -48 42 -75 89 -75 129 0 12 -14 44 -31 70 -25 40 -44 55 -112 88 -45 22
-95 43 -110 46 -44 9 -113 80 -189 195 l-70 105 6 65 c4 36 13 93 21 127 16
69 7 116 -25 133 -28 15 -49 12 -115 -16z"/>
<g id="auk-img">
<path d="M20674 27183 c-12 -2 -35 -16 -53 -31 -25 -22 -35 -43 -50 -106 -11
-43 -28 -88 -39 -100 -35 -38 -44 -65 -37 -115 5 -39 15 -58 55 -99 94 -99
194 -150 334 -172 79 -12 120 -3 156 35 35 37 25 116 -23 189 -30 44 -37 65
-37 103 -1 66 -28 120 -92 185 -81 81 -159 121 -214 111z"/>
<path d="M19175 26859 c-22 -20 -92 -75 -155 -122 -63 -47 -128 -97 -145 -110
-16 -13 -74 -57 -128 -97 -55 -40 -101 -80 -104 -88 -4 -9 16 -34 50 -65 84
-77 143 -160 178 -250 36 -93 34 -124 -11 -185 -37 -51 -63 -66 -104 -58 -53
10 -100 58 -144 148 -65 130 -78 147 -130 169 -38 17 -60 20 -116 15 -78 -6
-111 -28 -122 -81 -5 -27 1 -38 41 -83 26 -28 81 -76 123 -106 102 -72 113
-84 308 -351 92 -126 176 -236 186 -243 17 -12 17 -15 -2 -63 l-20 -50 52 -55
c28 -30 78 -72 110 -93 49 -34 63 -38 97 -34 29 4 53 -1 93 -19 46 -21 72 -46
163 -153 l109 -128 -31 -27 c-36 -32 -126 -55 -173 -45 -33 7 -34 4 -21 -40 5
-19 4 -48 -4 -79 -17 -65 0 -131 60 -243 25 -46 45 -90 45 -98 0 -19 -4 -20
71 14 94 41 172 53 295 45 l104 -7 68 45 c66 44 113 62 347 132 192 57 262 76
277 76 8 0 22 6 32 13 17 12 17 16 -7 73 -13 32 -39 126 -57 209 -18 86 -40
161 -51 176 -11 15 -39 35 -64 44 -37 15 -54 16 -107 6 -86 -14 -124 -3 -199
57 -69 56 -72 57 -243 67 -145 8 -200 37 -338 175 -95 94 -108 111 -108 141 0
36 32 209 50 269 14 49 13 101 -4 119 -8 9 -26 57 -42 106 -21 72 -27 111 -28
195 -1 97 1 109 28 160 16 30 53 83 82 118 79 93 80 114 12 196 -29 35 -31 36
-103 36 -81 0 -132 18 -155 54 -7 11 -16 50 -19 86 l-6 65 -40 -36z"/>
</g>
<path id="wko-img" d="M20744 26206 c-28 -13 -59 -34 -68 -47 -44 -64 5 -200 111 -304 74
-74 70 -52 78 -440 4 -148 10 -302 15 -341 9 -73 70 -227 112 -287 35 -50 37
-154 3 -252 -15 -44 -32 -85 -37 -92 -15 -19 -99 -43 -173 -50 -79 -6 -107 3
-170 58 -31 28 -39 30 -77 24 -24 -4 -68 -15 -98 -25 -30 -10 -131 -39 -224
-65 -172 -47 -240 -75 -292 -118 -57 -47 -69 -50 -158 -37 -131 20 -346 -19
-346 -62 0 -8 25 -45 55 -83 65 -81 68 -101 24 -188 -31 -60 -32 -64 -25 -159
8 -125 19 -155 98 -275 96 -145 102 -157 99 -237 -2 -83 11 -128 51 -179 59
-75 55 -108 -20 -193 -54 -60 -57 -71 -91 -284 -15 -96 -19 -151 -14 -236 l6
-111 -43 -29 c-79 -54 -119 -95 -130 -132 -21 -76 -39 -253 -43 -423 -4 -171
-5 -177 -32 -225 -16 -27 -39 -63 -52 -81 -46 -61 -38 -138 29 -285 l30 -67
-36 -107 c-20 -59 -33 -110 -31 -113 3 -3 54 -8 113 -12 67 -5 130 -16 167
-29 48 -17 83 -21 174 -21 142 1 184 18 291 120 41 40 104 92 140 115 74 50
246 123 388 165 62 19 169 66 296 131 180 93 203 102 242 97 54 -6 124 -55
155 -110 22 -39 24 -51 21 -170 -2 -116 -4 -133 -31 -190 -19 -43 -43 -76 -74
-102 -132 -111 -133 -250 -4 -513 23 -46 67 -115 99 -153 l58 -69 -30 -98
c-45 -146 -60 -227 -60 -336 0 -97 5 -128 37 -234 21 -68 81 -138 124 -144 29
-4 83 2 148 17 13 3 60 41 105 84 94 90 120 105 224 132 113 29 168 70 251
184 34 46 141 254 141 274 0 26 93 148 167 217 l86 81 -13 62 c-16 78 -7 197
19 249 11 21 39 60 63 88 25 27 78 92 118 144 41 52 99 124 130 159 l55 64 0
126 c1 121 2 130 39 231 53 145 58 171 41 196 -22 33 -391 365 -449 404 -30
19 -90 53 -134 74 -80 39 -81 39 -231 226 -164 204 -174 222 -225 425 -35 141
-36 143 -136 267 -86 107 -90 115 -90 161 0 27 7 77 16 111 29 112 1 229 -75
311 -37 40 -81 117 -81 142 0 29 62 118 150 215 42 46 88 99 102 118 l26 35
-14 150 c-10 96 -23 178 -39 228 -14 43 -25 83 -25 88 0 6 -14 45 -31 87 -29
73 -30 79 -19 143 12 71 7 91 -41 166 -15 24 -25 66 -35 153 -14 125 -22 145
-76 218 -45 60 -44 102 5 165 41 53 48 97 23 146 -28 54 -95 65 -179 29 -55
-24 -156 -31 -228 -15 l-36 7 -18 168 c-22 203 -30 230 -91 327 -44 69 -56 80
-127 121 -44 24 -89 44 -101 44 -11 0 -44 -11 -72 -24z"/>
<path id="bop-img" d="M21839 23923 c-52 -44 -132 -132 -161 -176 -15 -23 -36 -54 -47 -69
-29 -37 -27 -49 22 -110 58 -71 115 -166 128 -211 7 -27 6 -67 -6 -147 -26
-188 -29 -180 123 -358 34 -41 64 -84 67 -96 61 -269 73 -306 132 -394 32 -48
105 -136 163 -196 89 -92 116 -114 177 -141 102 -47 183 -105 282 -203 47 -47
122 -115 166 -152 101 -86 129 -117 144 -159 17 -51 14 -67 -23 -145 -48 -99
-68 -186 -67 -284 1 -46 4 -88 7 -93 7 -12 -39 -72 -125 -164 -136 -146 -158
-172 -207 -245 -78 -118 -88 -146 -81 -239 6 -101 15 -116 75 -130 62 -15 77
-10 207 79 17 11 62 41 100 67 39 25 99 71 135 102 99 86 139 114 215 151 64
31 78 34 170 35 l100 1 150 75 c83 41 179 95 215 120 61 41 167 84 312 124 51
14 57 19 64 48 11 52 82 207 124 272 47 71 77 93 202 147 198 85 343 207 476
398 37 52 118 160 180 240 l115 145 51 6 c28 4 83 4 122 2 90 -7 90 -8 193
201 85 173 142 255 262 381 109 115 116 134 78 219 -34 77 -40 142 -18 208 10
32 23 66 28 77 6 11 8 27 5 35 -17 44 -156 82 -205 55 -65 -34 -109 -81 -126
-136 -20 -63 -22 -64 -137 -88 -76 -16 -82 -20 -140 -79 -59 -60 -137 -154
-186 -226 -13 -19 -65 -80 -114 -136 -50 -55 -116 -131 -146 -168 -61 -75
-103 -101 -219 -136 -66 -20 -88 -22 -193 -17 -114 6 -122 8 -201 48 -65 33
-104 45 -195 60 -104 17 -117 22 -153 53 -73 67 -108 78 -248 80 -84 1 -139 7
-166 17 -37 14 -286 172 -435 275 -159 111 -239 150 -395 190 -115 30 -167 30
-321 -2 -148 -30 -185 -26 -274 34 -55 38 -247 242 -278 297 -14 25 -17 59
-17 205 0 180 -5 210 -48 263 -18 22 -20 22 -58 -10z"/>
<path id="gis-img" d="M26349 23416 c-34 -7 -74 -26 -106 -48 -27 -21 -62 -42 -77 -48 -31
-11 -48 -47 -67 -136 -12 -58 -11 -66 14 -137 46 -128 35 -167 -68 -261 -88
-80 -156 -173 -250 -341 -43 -77 -94 -165 -114 -195 l-36 -55 -128 -5 c-146
-6 -133 2 -228 -140 -28 -41 -66 -91 -84 -110 -19 -19 -58 -72 -87 -117 -109
-168 -239 -305 -351 -367 -34 -19 -111 -55 -171 -80 -60 -25 -118 -53 -127
-63 -31 -31 -138 -240 -145 -282 l-6 -39 88 -6 c247 -18 311 -25 336 -35 45
-17 168 -193 222 -318 26 -59 54 -117 64 -129 10 -12 86 -48 177 -84 235 -93
307 -132 390 -215 38 -39 88 -84 110 -100 22 -16 48 -38 57 -49 9 -12 19 -19
21 -16 3 3 8 61 12 130 8 171 40 345 70 391 27 41 135 125 204 160 25 12 80
45 121 72 195 131 318 254 383 385 l42 85 7 231 c9 302 24 374 109 529 87 159
90 170 98 348 l7 157 35 58 c37 61 89 195 89 230 0 12 18 81 40 154 22 73 40
145 40 160 0 14 -11 49 -25 77 -24 47 -32 54 -118 97 -126 62 -251 104 -333
111 -38 3 -89 7 -114 10 -25 2 -70 -2 -101 -9z"/>
<path id="mwt-img" d="M21030 21273 c-8 -3 -55 -30 -103 -60 -48 -29 -111 -63 -139 -74 -55
-21 -97 -40 -218 -97 -41 -19 -118 -50 -170 -68 -196 -67 -198 -68 -310 -179
-104 -102 -142 -127 -210 -140 -75 -15 -77 -19 -84 -167 -12 -228 -28 -277
-150 -461 -85 -127 -126 -217 -126 -276 0 -76 165 -375 264 -481 179 -189 231
-332 231 -626 l0 -151 -48 -53 c-87 -96 -168 -236 -197 -340 -10 -36 -18 -65
-17 -66 1 -1 43 -25 92 -54 50 -28 113 -69 140 -89 224 -167 222 -165 304
-343 22 -48 56 -109 74 -135 44 -62 66 -161 72 -323 6 -159 11 -184 46 -247
25 -43 30 -67 35 -145 6 -96 -1 -163 -35 -328 -24 -119 -30 -160 -41 -285 -5
-55 -15 -116 -23 -135 -33 -80 -32 -88 15 -109 120 -52 213 -56 321 -12 129
52 221 70 455 87 87 7 111 2 149 -29 33 -28 121 -51 247 -67 129 -16 184 -7
302 51 l102 50 283 5 c156 3 312 7 346 10 l62 5 67 101 c94 141 163 208 244
237 151 55 194 117 156 226 -13 35 -18 40 -43 37 -84 -11 -122 -5 -170 26 -26
17 -69 40 -94 53 -39 18 -53 34 -87 93 -76 136 -84 161 -91 286 -4 81 -11 122
-22 137 -23 33 -294 337 -358 403 -99 101 -134 231 -96 360 9 30 33 118 54
195 21 77 48 173 60 213 16 56 22 104 24 215 2 130 0 146 -20 186 -19 37 -23
59 -22 135 1 64 -5 117 -20 176 -19 77 -21 102 -16 260 l6 175 -41 73 c-22 39
-46 72 -53 72 -7 0 -23 -16 -36 -36 -48 -69 -143 -132 -237 -155 -77 -19 -116
-43 -208 -128 -99 -92 -135 -107 -271 -117 -83 -6 -92 -5 -118 16 -47 38 -91
140 -107 249 -13 93 5 333 31 407 11 33 26 85 34 116 15 65 20 54 -82 177 -23
28 -64 90 -92 139 l-50 88 -11 141 c-14 170 -13 173 101 285 90 89 97 106 107
267 10 148 7 160 -52 199 -38 25 -58 32 -95 31 -25 0 -53 -3 -61 -6z"/>
<path id="hkb-img" d="M24270 20923 c-143 -22 -330 -101 -512 -214 -145 -91 -194 -111 -273
-110 -150 3 -239 -34 -381 -157 -244 -212 -362 -283 -475 -288 -101 -3 -174
-51 -257 -166 -42 -58 -115 -201 -137 -267 l-16 -50 44 -93 45 -93 5 -215 c3
-168 9 -237 26 -314 14 -66 19 -115 15 -146 -4 -32 -2 -56 9 -76 23 -47 30
-101 28 -235 -2 -121 -4 -134 -67 -365 -36 -131 -70 -263 -76 -292 -19 -101
-11 -116 229 -406 119 -144 220 -266 224 -272 5 -5 13 -64 19 -130 21 -230 75
-325 236 -414 149 -83 163 -77 259 101 41 76 114 190 177 273 98 131 111 152
148 257 37 106 116 253 196 369 17 25 52 86 78 135 l48 91 12 155 12 154 57
77 c58 80 67 110 45 151 -18 35 -87 125 -160 210 -61 71 -119 170 -138 237 -6
20 7 54 62 160 49 97 74 160 89 225 11 50 26 100 31 112 27 56 177 188 283
249 47 27 124 76 171 109 163 115 178 123 262 131 42 4 154 4 247 1 220 -7
259 -1 303 47 33 36 35 37 100 35 37 -1 96 -6 131 -11 58 -8 71 -14 138 -71
l74 -62 -1 -90 c-4 -153 -2 -162 29 -197 28 -31 30 -32 69 -20 44 13 96 65
118 118 12 29 11 56 -10 216 -13 101 -27 190 -30 199 -8 17 -215 206 -290 263
-68 52 -131 82 -222 106 -85 23 -217 80 -247 108 -10 9 -54 87 -97 172 -86
169 -130 230 -192 261 -94 48 -256 60 -438 32z"/>
<path id="tki-img" d="M19209 20585 c-101 -210 -244 -402 -344 -460 -40 -23 -41 -23 -144
-8 -174 24 -251 -1 -396 -127 -38 -34 -101 -87 -140 -118 -38 -31 -101 -81
-140 -112 -106 -86 -243 -180 -289 -200 -23 -9 -46 -24 -53 -31 -15 -19 -27
-358 -13 -394 14 -36 190 -234 290 -325 45 -41 107 -91 138 -110 54 -33 61
-35 147 -34 50 0 117 4 150 8 52 7 69 5 130 -18 80 -31 183 -86 240 -130 22
-16 108 -99 191 -183 160 -162 209 -195 304 -209 25 -3 122 -26 215 -50 94
-24 175 -44 181 -44 6 0 52 85 102 189 73 152 97 194 127 217 42 31 64 70 65
111 1 15 -3 87 -9 158 -8 101 -18 151 -42 220 -17 50 -33 100 -36 112 -3 13
-38 60 -77 105 -67 77 -146 188 -177 249 -8 15 -35 65 -61 112 -27 46 -48 90
-48 97 0 7 -12 38 -26 68 -40 85 -34 104 110 361 76 137 129 243 136 273 11
52 14 278 4 315 -5 18 -12 22 -31 18 -14 -2 -74 12 -135 31 -94 29 -124 34
-210 34 l-99 0 -60 -125z"/>
<path id="wgn-img" d="M22205 15891 c-186 -6 -196 -8 -260 -56 -17 -13 -67 -33 -110 -45
-72 -20 -93 -22 -213 -16 -148 7 -209 24 -273 76 -35 28 -44 30 -119 30 -127
0 -316 -34 -407 -74 -109 -47 -176 -60 -255 -46 -77 13 -132 27 -178 47 -20 8
-36 11 -38 5 -1 -5 -17 -31 -35 -57 -73 -110 -87 -134 -118 -210 -29 -71 -46
-93 -146 -197 -62 -65 -113 -121 -113 -126 0 -16 -135 -190 -212 -274 -250
-272 -314 -352 -323 -408 -6 -35 -3 -45 14 -64 46 -49 143 -52 226 -9 22 12
65 40 95 63 56 42 91 57 109 46 6 -4 7 -51 4 -121 -7 -145 -1 -159 84 -169 39
-4 84 -1 132 9 40 8 106 15 147 15 80 0 108 -15 118 -62 3 -13 13 -61 22 -107
15 -77 28 -115 71 -207 11 -24 33 -39 104 -72 95 -45 118 -48 201 -31 82 18
138 51 229 136 84 78 152 133 165 133 3 0 48 20 100 45 75 36 102 56 141 101
26 31 77 75 113 99 84 55 250 219 370 365 52 63 129 151 171 196 42 45 87 100
100 122 13 22 51 87 83 144 69 119 172 250 245 311 39 32 61 62 95 132 67 137
116 251 116 269 0 18 -65 19 -455 7z"/>
<path id="tas-img" d="M16190 15874 c-8 -1 -64 -11 -125 -20 -152 -24 -292 -73 -328 -116
-90 -108 -286 -319 -350 -376 -52 -48 -187 -210 -187 -226 0 -7 10 -21 21 -32
28 -24 156 -197 171 -230 9 -19 7 -40 -7 -97 -33 -134 -14 -153 165 -165 103
-7 135 -13 181 -35 56 -26 123 -89 138 -130 17 -45 22 -126 11 -188 -14 -80
-102 -243 -169 -314 -106 -111 -137 -161 -225 -368 -37 -87 -62 -128 -127
-206 -67 -83 -90 -104 -142 -129 -98 -49 -114 -71 -127 -177 -15 -132 -13
-283 5 -342 8 -28 40 -86 70 -128 65 -90 90 -136 100 -185 10 -50 63 -145 104
-190 35 -37 330 -220 355 -220 28 0 295 295 296 327 0 6 11 35 25 65 18 39 25
70 25 116 0 35 5 73 11 85 6 12 44 54 86 93 72 68 75 73 89 140 15 69 15 69
129 184 119 119 145 161 145 228 0 51 25 133 51 165 25 33 34 83 20 119 -8 22
-18 28 -58 34 -98 14 -126 40 -152 139 -25 95 -11 171 49 256 91 130 122 243
123 449 1 112 -3 145 -20 195 -44 127 -38 184 27 258 59 67 56 105 -20 197
-20 25 -42 59 -49 77 -7 18 -20 38 -28 45 -8 7 -19 22 -23 34 -11 27 -56 36
-133 25 -41 -5 -93 -2 -185 11 -70 11 -133 21 -139 23 -9 3 -5 19 14 55 21 41
28 72 34 148 9 121 16 141 70 177 42 30 43 30 180 28 132 -1 137 -1 147 21 14
31 -7 109 -42 152 -27 34 -27 34 -109 33 -45 -1 -89 -3 -97 -5z"/>
<path id="wtc-img" d="M15116 15045 c-55 -83 -103 -192 -119 -269 -14 -71 -9 -164 14 -256
14 -57 13 -247 -1 -303 -6 -23 -24 -76 -39 -117 -16 -41 -34 -118 -40 -170
-25 -198 -39 -243 -126 -380 -50 -79 -195 -229 -286 -295 -15 -11 -62 -49
-105 -84 -91 -75 -132 -93 -269 -116 -116 -19 -140 -32 -154 -80 -7 -27 -5
-45 11 -87 13 -33 22 -87 26 -146 5 -104 -2 -127 -97 -297 -29 -51 -55 -113
-62 -145 -6 -30 -17 -83 -25 -117 -8 -34 -14 -83 -14 -107 0 -65 -33 -177
-105 -361 -35 -88 -73 -194 -84 -235 -12 -41 -55 -140 -96 -220 l-76 -145
-227 -230 c-125 -127 -258 -266 -296 -309 -95 -107 -207 -192 -546 -414 -138
-90 -361 -316 -536 -542 l-82 -105 -93 -39 c-81 -34 -101 -48 -160 -110 -76
-79 -128 -145 -129 -162 0 -20 -174 -179 -255 -234 -53 -36 -105 -61 -156 -76
-101 -29 -127 -44 -201 -112 -129 -119 -457 -401 -509 -438 -30 -21 -69 -51
-87 -66 -18 -16 -64 -49 -103 -74 -39 -26 -80 -60 -92 -76 -45 -62 -96 -75
-332 -87 -242 -12 -263 -20 -361 -129 -43 -48 -114 -125 -158 -172 -102 -108
-196 -219 -196 -231 0 -6 8 -8 18 -4 63 19 263 -5 334 -41 57 -29 132 -153
153 -253 21 -96 111 -178 183 -165 53 9 134 33 158 47 32 18 94 76 136 128 34
41 131 205 180 303 20 39 97 159 120 186 20 24 169 136 203 153 42 20 126 37
190 37 29 0 89 5 132 11 105 14 165 54 373 251 115 108 197 176 280 230 132
87 281 214 324 276 16 23 32 42 36 42 4 0 56 95 114 210 119 233 147 269 310
391 101 76 159 103 271 129 179 42 301 82 374 123 92 52 218 157 388 323 122
120 169 172 358 393 89 105 182 175 320 244 154 77 263 111 459 142 55 9 109
21 120 27 36 18 76 61 121 128 68 103 190 226 313 317 107 80 152 128 152 164
0 51 160 241 218 260 20 6 45 19 56 28 35 31 104 126 175 246 40 66 82 128 94
139 l22 18 -30 24 c-17 14 -75 53 -130 87 -55 34 -118 78 -139 97 -43 39 -116
177 -116 220 0 27 -63 134 -93 158 -9 8 -31 51 -48 95 -29 73 -32 96 -37 213
-8 221 24 313 130 380 21 13 44 24 52 24 20 0 162 165 185 215 10 22 28 65 41
95 66 158 101 217 228 388 34 46 82 121 107 167 41 74 46 91 47 152 2 80 -18
126 -79 185 -56 54 -87 63 -300 87 -74 8 -96 19 -115 55 -25 47 -27 86 -5 146
18 49 19 61 9 81 -7 13 -20 38 -29 54 -9 17 -30 48 -47 70 -18 22 -42 57 -55
78 -31 51 -52 48 -95 -18z"/>
<path id="mbh-img" d="M17747 14726 c-73 -26 -214 -137 -200 -159 12 -20 21 -163 12 -209
-11 -63 -67 -134 -218 -280 -118 -114 -151 -160 -151 -211 0 -43 -104 -178
-266 -342 -72 -73 -120 -91 -219 -80 l-64 6 -19 -38 c-31 -60 -62 -163 -62
-205 0 -49 -28 -103 -75 -148 -21 -19 -68 -69 -105 -111 -57 -64 -71 -87 -89
-149 -19 -62 -31 -81 -75 -124 -75 -71 -106 -121 -106 -167 0 -20 -9 -66 -20
-101 -11 -34 -20 -68 -20 -74 0 -6 18 -20 39 -32 21 -12 85 -73 142 -135 57
-61 113 -119 123 -127 54 -43 178 -112 225 -126 44 -13 71 -32 134 -91 71 -68
81 -75 109 -69 17 3 36 6 43 6 7 0 43 46 79 103 77 121 84 131 220 314 58 78
110 144 115 148 6 3 35 43 65 89 52 81 69 97 244 239 26 20 75 54 110 75 35
20 81 47 101 59 47 28 172 53 215 43 17 -4 73 -30 125 -59 52 -28 95 -51 97
-51 2 0 14 16 28 36 14 21 80 93 147 161 l122 124 -6 127 c-6 150 -28 225 -92
317 -23 33 -68 104 -100 158 -54 91 -59 104 -59 160 -1 115 60 208 196 304
130 91 155 140 103 201 -51 60 -165 48 -487 -52 -194 -60 -271 -75 -293 -56
-22 18 -19 28 33 120 27 47 52 102 56 124 6 34 3 44 -23 82 -33 45 -37 72 -20
123 17 49 -4 91 -45 91 -17 -1 -48 -7 -69 -14z"/>
<path id="nsn-img" d="M17335 14521 c-138 -54 -189 -84 -271 -166 -84 -82 -148 -178 -214
-319 -38 -81 -57 -109 -94 -139 -44 -37 -46 -41 -46 -90 0 -39 -6 -62 -25 -89
-66 -97 -67 -191 -3 -223 24 -12 47 -14 90 -9 69 8 96 27 188 133 147 168 190
229 190 268 0 43 116 188 276 348 59 58 83 89 88 114 8 42 6 148 -3 181 -11
39 -59 36 -176 -9z"/>
<path id="can-img" d="M17893 12775 c-78 -22 -141 -57 -229 -127 -130 -102 -263 -243 -338
-356 -37 -57 -104 -149 -147 -205 -44 -56 -108 -146 -142 -201 -58 -93 -144
-186 -172 -186 -35 0 -88 30 -159 91 -61 52 -98 75 -162 99 -94 35 -168 94
-326 258 -113 117 -139 136 -171 128 -13 -3 -68 -58 -124 -123 -153 -178 -165
-188 -218 -186 -41 1 -48 -2 -79 -39 -19 -22 -51 -71 -70 -108 -41 -77 -136
-207 -191 -260 -19 -19 -55 -44 -78 -55 -53 -25 -141 -139 -164 -213 -18 -58
-64 -103 -273 -272 -82 -67 -194 -190 -294 -323 -35 -48 -55 -55 -191 -73
-130 -18 -268 -52 -348 -88 -150 -67 -318 -191 -405 -300 -49 -60 -464 -506
-471 -506 -4 0 -31 -22 -61 -50 -30 -27 -75 -62 -100 -77 -25 -14 -58 -36 -75
-49 -62 -45 -191 -103 -255 -113 -84 -14 -196 -50 -285 -91 -11 -5 -36 -15
-55 -23 -38 -15 -229 -169 -272 -220 -15 -18 -33 -48 -39 -67 -7 -19 -34 -72
-60 -118 -27 -45 -49 -86 -49 -90 0 -4 -21 -43 -47 -87 -59 -102 -149 -198
-294 -316 -63 -51 -117 -97 -120 -102 -15 -22 -29 -147 -19 -172 6 -14 10 -61
10 -103 0 -94 -23 -150 -72 -180 -55 -34 -125 -115 -137 -158 -19 -70 -10
-177 25 -267 8 -21 14 -72 14 -116 0 -114 31 -176 128 -250 34 -27 42 -39 42
-65 0 -24 14 -51 50 -99 59 -78 152 -140 286 -190 166 -62 281 -174 338 -329
11 -30 33 -61 59 -83 52 -45 180 -108 306 -150 53 -18 118 -41 145 -50 47 -17
51 -17 100 0 28 10 80 33 116 50 83 41 154 64 205 66 22 1 164 -2 316 -6 267
-8 277 -7 282 11 3 10 16 75 28 143 19 105 28 132 57 175 58 85 75 145 123
440 6 33 13 64 16 70 4 5 10 69 14 140 8 140 33 254 74 345 33 72 154 203 268
291 102 79 289 202 345 228 21 9 201 124 402 255 201 132 378 246 394 254 105
54 303 101 436 102 41 0 109 8 152 16 118 24 348 1 398 -40 8 -7 30 -20 48
-30 40 -20 104 -13 141 16 31 24 75 24 115 -1 35 -21 23 -22 187 21 46 12 75
67 66 130 -7 50 -62 160 -97 194 -36 34 -151 81 -250 101 -220 44 -340 168
-375 388 l-15 95 45 193 c25 106 49 225 52 263 3 39 8 75 12 82 9 18 157 139
226 186 214 144 431 327 511 432 12 16 55 93 94 170 40 77 100 178 135 225 79
109 98 141 128 220 14 36 38 97 52 135 54 138 80 179 162 251 43 38 111 103
152 144 40 41 138 141 217 221 78 80 148 158 154 175 7 16 18 71 26 123 8 54
21 102 30 112 8 9 21 37 29 61 7 23 21 60 31 82 l19 38 -30 25 c-83 69 -203
96 -302 68z"/>
<path id="ota-img" d="M11315 8272 c-22 -16 -92 -80 -155 -142 -204 -199 -280 -245 -420
-255 -47 -4 -119 -13 -160 -22 -83 -17 -220 -78 -262 -117 -38 -34 -199 -293
-263 -421 -52 -102 -182 -235 -272 -277 -79 -37 -182 -49 -235 -27 -31 13 -32
12 -89 -49 -32 -34 -76 -86 -98 -116 -154 -208 -278 -641 -240 -838 17 -87 31
-112 115 -199 l74 -77 0 -60 c0 -34 5 -64 10 -67 6 -3 10 -14 10 -24 0 -18 93
-162 157 -241 43 -55 110 -89 176 -89 37 -1 67 9 137 44 49 25 102 45 117 45
41 0 94 -39 213 -155 163 -159 172 -160 296 -46 96 90 131 106 215 98 103 -9
153 -71 131 -160 -6 -23 -13 -58 -17 -78 -3 -19 -27 -70 -54 -112 -26 -42 -58
-103 -69 -134 -39 -107 -76 -276 -76 -348 -1 -66 4 -80 71 -230 39 -88 75
-180 78 -205 17 -109 98 -335 157 -439 33 -58 71 -132 84 -164 l25 -59 -17
-177 -18 -176 48 -240 c57 -289 53 -275 76 -275 32 0 257 88 288 113 7 6 48
26 90 46 43 20 100 50 127 67 28 17 85 50 127 74 106 59 120 76 129 156 5 41
17 77 31 97 29 42 197 223 424 460 167 173 187 198 250 309 65 115 143 228
176 255 8 7 56 14 114 17 87 3 108 8 163 35 125 62 181 114 236 221 33 63 13
149 -44 189 -41 30 -54 99 -46 238 10 150 62 300 151 428 39 57 70 116 77 146
4 14 11 88 17 165 18 241 80 434 176 546 29 34 46 67 56 107 l15 58 -111 7
c-61 3 -197 6 -302 6 -217 0 -236 -4 -404 -81 -59 -27 -120 -49 -137 -49 -33
0 -184 50 -243 80 -21 11 -67 30 -103 44 -79 29 -208 99 -231 125 -9 10 -27
46 -41 80 -66 170 -132 246 -240 280 -99 31 -235 107 -326 182 -73 60 -78 67
-85 113 -6 41 -17 60 -75 125 -94 105 -103 125 -107 249 -2 75 -9 123 -27 180
-31 98 -33 181 -3 257 17 46 37 71 102 131 l81 74 0 143 c0 78 -2 152 -5 165
l-5 23 -40 -29z"/>
<g id="stl-img">
<path d="M8895 7420 c-27 -33 -58 -76 -68 -97 -11 -21 -45 -81 -77 -133 -31
-52 -87 -153 -125 -225 -65 -124 -74 -136 -190 -250 -68 -66 -190 -199 -271
-295 -180 -212 -345 -400 -369 -420 -10 -8 -42 -46 -71 -85 -29 -38 -93 -122
-143 -185 -51 -65 -88 -121 -86 -130 3 -8 9 -37 14 -63 10 -56 18 -46 -105
-126 -56 -36 -93 -67 -97 -80 -3 -12 4 -43 15 -68 30 -68 18 -106 -48 -152
-28 -20 -82 -63 -119 -97 l-68 -61 0 -129 c0 -71 5 -156 11 -188 7 -32 9 -83
5 -113 -10 -88 -31 -110 -180 -183 -141 -70 -161 -83 -173 -115 -20 -54 12
-57 177 -15 200 50 264 61 379 67 134 7 177 -4 193 -48 14 -41 -4 -68 -68
-103 -50 -27 -183 -80 -296 -118 -33 -11 -87 -32 -120 -46 -33 -13 -91 -38
-130 -54 -106 -44 -130 -66 -147 -137 -30 -116 7 -199 82 -187 126 21 116 22
167 -23 102 -89 112 -101 119 -138 7 -38 0 -73 -31 -154 -27 -69 -17 -91 59
-130 l64 -33 94 27 c113 32 184 34 258 6 83 -31 157 -49 199 -49 43 0 227 96
360 188 41 29 99 61 130 73 71 27 176 28 246 2 43 -16 57 -29 98 -88 26 -38
47 -78 47 -88 0 -29 63 -137 102 -173 75 -71 174 -100 396 -113 l153 -9 114
-72 c81 -50 130 -89 167 -132 195 -224 199 -226 528 -204 101 7 143 5 220 -9
361 -64 475 -75 561 -55 57 13 111 39 104 50 -7 12 -66 381 -72 450 -3 36 0
138 6 227 l11 162 -60 133 c-32 73 -79 168 -103 211 -47 81 -69 158 -87 299
-10 81 -51 182 -127 311 -45 76 -44 51 -5 312 23 148 55 237 115 317 49 64 75
130 84 208 5 53 4 60 -20 84 -22 22 -35 26 -82 26 -78 0 -110 -17 -186 -98
-76 -79 -95 -92 -139 -92 -56 0 -100 31 -232 162 -93 91 -136 128 -153 128
-13 0 -64 -20 -114 -44 -107 -52 -208 -69 -257 -43 -40 21 -143 130 -191 203
-69 102 -85 142 -92 224 l-6 76 -81 80 c-104 101 -115 123 -121 243 -10 168 7
249 113 546 43 121 101 220 214 365 86 110 84 106 62 138 -22 31 -38 78 -46
140 -7 50 -34 106 -70 149 -44 52 -209 104 -329 102 l-62 0 -50 -59z"/>
<path d="M8855 2091 c-49 -30 -84 -74 -86 -106 0 -17 16 -68 36 -114 35 -78
37 -89 32 -152 -10 -119 -48 -192 -238 -459 -140 -197 -147 -210 -154 -265
-14 -101 44 -97 299 23 87 41 177 77 200 80 61 7 122 42 203 115 77 70 125 91
277 122 43 9 91 22 106 30 38 20 55 65 41 107 -13 36 -29 52 -141 138 -128 98
-135 116 -55 150 37 16 45 24 45 45 0 76 -104 169 -220 195 -30 7 -84 28 -118
47 -56 29 -155 63 -187 63 -5 0 -23 -8 -40 -19z"/>
</g>
</g>
</svg>
