<?xml version="1.0" standalone="no"?>
<!DOCTYPE svg PUBLIC "-//W3C//DTD SVG 20010904//EN"
 "http://www.w3.org/TR/2001/REC-SVG-20010904/DTD/svg10.dtd">
<svg version="1.0" xmlns="http://www.w3.org/2000/svg" id="taiwan-img" 
 width="3168.000000pt" height="3168.000000pt" viewBox="0 0 3168.000000 3168.000000"
 preserveAspectRatio="xMidYMid meet">

<g transform="translate(0.000000,3168.000000) scale(0.100000,-0.100000)">
<path id="newtaipei-img" d="M20555 30565 c-103 -17 -152 -30 -250 -67 -238 -91 -354 -160 -540
-320 -197 -170 -293 -293 -405 -519 -138 -280 -177 -331 -310 -413 -160 -100
-291 -154 -405 -170 -27 -4 -70 -13 -95 -21 -25 -7 -82 -19 -127 -25 -46 -7
-83 -16 -83 -19 0 -4 58 -17 129 -30 144 -25 257 -58 329 -98 139 -76 252
-180 343 -316 68 -101 88 -159 96 -277 5 -79 3 -91 -26 -167 -57 -146 -157
-275 -279 -358 -53 -36 -162 -87 -261 -121 -30 -10 -60 -28 -67 -39 -21 -33
-44 -135 -44 -200 0 -56 3 -63 40 -105 21 -25 70 -93 107 -151 66 -102 92
-165 142 -346 9 -33 26 -55 86 -105 40 -35 84 -69 97 -75 73 -33 127 -48 210
-58 50 -6 64 -4 115 21 32 16 75 44 95 62 32 29 41 32 73 26 66 -12 86 -39 96
-129 13 -124 68 -494 80 -550 6 -27 19 -74 30 -103 10 -29 19 -61 19 -71 0
-10 13 -44 29 -77 16 -32 39 -82 50 -110 36 -93 84 -174 135 -229 l51 -54 255
89 c381 134 474 170 626 247 73 37 117 65 127 82 12 22 14 57 10 211 -7 226 0
248 95 327 59 49 82 64 277 178 91 53 301 189 619 401 237 158 355 231 511
314 75 40 234 137 245 150 3 3 31 21 63 40 74 44 156 131 213 225 24 40 59 84
77 97 17 14 167 96 332 183 344 180 353 183 555 169 63 -4 152 -8 197 -8 77
-1 83 1 120 30 145 118 16 288 -289 379 -97 30 -114 44 -142 122 -37 102 -51
130 -102 199 -33 44 -73 85 -109 109 -89 59 -316 163 -392 179 -37 9 -159 34
-270 56 l-201 41 -54 -23 c-106 -46 -515 -312 -542 -353 -10 -15 -36 -47 -57
-70 -51 -55 -66 -95 -75 -191 -4 -43 -10 -86 -15 -95 -14 -28 -74 -49 -137
-49 -54 0 -64 3 -92 31 -34 34 -48 63 -90 184 -42 120 -66 171 -128 270 -116
185 -150 221 -332 350 -105 74 -232 205 -261 270 -17 38 -17 47 -3 140 16 111
42 174 103 254 58 77 57 114 -4 177 -25 25 -45 51 -45 57 0 18 -105 222 -140
272 -38 55 -74 82 -175 133 -98 48 -128 53 -230 37z m179 -1186 c14 -11 31
-29 37 -40 10 -20 37 -307 35 -384 l-1 -40 55 -3 c111 -5 297 -33 365 -55 56
-18 81 -33 127 -77 54 -51 60 -61 84 -145 51 -178 49 -235 -10 -296 -56 -57
-121 -86 -234 -105 l-102 -17 2 -116 c2 -101 -1 -121 -19 -157 -36 -69 -54
-75 -273 -95 -107 -11 -208 -21 -225 -24 -31 -6 -87 -32 -269 -129 -129 -69
-139 -68 -182 21 -26 53 -29 69 -32 195 -4 127 0 179 28 423 17 143 15 352 -3
405 -42 121 -87 285 -87 318 0 102 135 206 346 266 49 14 123 37 164 50 95 32
158 33 194 5z"/>
<path id="taipei-img" d="M20535 29324 c-38 -14 -95 -33 -125 -43 -130 -43 -308 -146 -324
-187 -12 -31 -6 -99 13 -138 51 -109 91 -271 91 -370 -1 -91 -20 -300 -45
-485 -28 -200 0 -391 56 -391 11 0 55 18 97 40 191 100 210 106 438 130 115
12 220 28 233 34 44 20 60 63 71 197 8 93 15 128 28 141 11 11 48 21 106 29
112 14 158 34 218 92 44 43 46 48 41 89 -19 159 -71 262 -167 327 -56 39 -96
49 -201 56 -337 19 -318 9 -314 158 1 56 -1 145 -6 197 -7 84 -11 97 -36 122
-35 35 -78 36 -174 2z"/>
<path id="keelung-img" d="M21179 29866 c-54 -47 -95 -191 -87 -304 6 -79 47 -131 221 -278 193
-164 241 -208 307 -289 64 -79 154 -249 194 -370 28 -84 77 -169 102 -179 30
-11 101 -6 113 8 7 8 16 41 21 74 4 32 19 81 33 108 13 27 32 69 42 94 17 46
55 82 200 190 58 44 172 114 248 152 52 26 49 51 -10 87 -46 29 -115 48 -257
71 -61 10 -80 19 -141 65 -40 30 -133 82 -215 120 -254 118 -401 217 -541 362
-37 37 -80 78 -97 91 -42 30 -98 29 -133 -2z"/>
<path id="taichung-img" d="M18145 28925 c-182 -26 -351 -76 -530 -156 -27 -12 -79 -45 -115 -74
-36 -28 -85 -66 -110 -83 -25 -18 -72 -54 -105 -82 -81 -66 -274 -180 -485
-285 -264 -131 -468 -272 -630 -435 -135 -134 -250 -281 -250 -318 0 -14 41
-29 131 -47 200 -40 393 -101 517 -162 51 -26 100 -55 109 -65 9 -10 22 -18
28 -18 7 0 61 -35 120 -77 59 -43 120 -86 135 -96 15 -10 55 -51 89 -92 72
-86 89 -106 248 -285 180 -201 265 -279 348 -317 88 -40 241 -86 365 -108 119
-21 406 -127 490 -180 20 -13 45 -24 56 -26 12 -3 30 -27 49 -64 30 -59 30
-62 30 -225 0 -122 -7 -208 -24 -329 l-25 -164 23 -43 c29 -53 83 -101 271
-236 25 -18 68 -50 95 -73 28 -22 98 -67 155 -99 58 -32 146 -86 195 -121 179
-124 274 -185 290 -185 18 0 18 -1 39 116 9 49 34 137 55 195 52 137 163 349
223 425 30 39 46 68 44 81 -3 11 -27 53 -54 94 -72 105 -177 307 -211 403 -16
45 -36 127 -45 181 -9 55 -23 126 -31 159 -22 85 -45 246 -45 319 0 76 -15
125 -44 149 -31 26 -51 22 -105 -20 -70 -56 -162 -79 -248 -63 -100 18 -303
129 -366 199 -10 11 -26 60 -36 108 -31 151 -88 270 -185 389 -63 76 -96 154
-96 224 0 61 34 161 63 184 12 10 72 42 133 72 172 83 284 167 367 272 83 106
86 112 102 182 28 123 28 153 0 237 -35 105 -75 173 -147 250 -125 133 -337
256 -463 269 -23 3 -55 10 -71 16 -43 17 -246 19 -349 4z"/>
<path id="yilan-img" d="M23634 27934 c-156 -81 -359 -196 -430 -245 -63 -43 -92 -75 -172
-191 -65 -94 -80 -109 -135 -139 -34 -18 -98 -56 -142 -84 -44 -28 -136 -84
-205 -125 -143 -84 -177 -106 -668 -424 -214 -138 -238 -154 -312 -196 -41
-23 -97 -56 -125 -73 -27 -16 -88 -52 -134 -78 -169 -98 -224 -163 -234 -276
-4 -37 -2 -124 3 -191 11 -141 6 -159 -57 -211 -50 -41 -154 -95 -244 -126
-167 -59 -347 -124 -592 -215 -49 -18 -101 -43 -116 -56 -36 -30 -203 -278
-251 -371 -68 -132 -119 -346 -140 -588 -16 -182 -31 -218 -174 -413 -34 -46
-78 -107 -98 -135 -21 -28 -97 -113 -169 -190 -182 -190 -306 -361 -301 -414
3 -42 75 -178 146 -278 81 -116 95 -129 156 -158 51 -23 91 -25 420 -18 183 4
202 3 317 -22 67 -15 137 -27 155 -27 101 0 329 -81 727 -257 149 -66 324
-113 421 -113 79 0 209 34 320 85 41 19 102 40 135 46 89 18 783 20 967 4 164
-14 238 -6 238 26 0 6 11 25 25 43 13 17 36 59 50 92 14 32 77 163 139 289 63
127 130 264 150 305 19 41 55 104 79 140 24 36 59 94 79 130 47 86 164 399
177 475 62 362 83 475 112 590 16 66 -4 295 -34 375 -24 65 -125 224 -214 334
-112 139 -181 314 -206 526 -17 142 -16 452 1 700 10 138 16 171 56 300 49
160 117 328 163 405 113 189 154 241 337 420 l184 180 23 72 c18 56 20 77 12
95 -16 36 -92 58 -199 58 l-92 0 -148 -76z"/>
<g id="lienchiang-img">
<path d="M6952 27894 c-12 -8 -22 -22 -22 -31 0 -8 -16 -31 -35 -50 -54 -54
-65 -74 -65 -118 0 -46 14 -65 46 -65 29 0 38 15 53 83 14 63 33 74 67 36 17
-19 19 -19 31 -3 19 26 16 42 -12 76 -20 24 -25 37 -20 59 8 34 -7 38 -43 13z"/>
<path d="M6604 27548 c-3 -13 -18 -36 -31 -52 -15 -18 -23 -39 -21 -55 3 -25
5 -26 73 -26 55 0 83 6 132 29 77 35 99 57 84 84 -9 18 -14 18 -73 6 -94 -20
-116 -18 -120 8 -4 31 -34 35 -44 6z"/>
<path d="M6649 26694 c-20 -24 15 -46 66 -42 32 2 41 7 43 24 2 17 -4 23 -29
28 -49 9 -65 7 -80 -10z"/>
<path d="M6842 26628 c0 -24 -3 -55 -7 -70 -10 -39 16 -37 47 3 13 17 33 42
46 56 34 37 22 53 -37 53 l-50 0 1 -42z"/>
</g>
<path id="hsinchucounty-img" d="M15849 27373 c-26 -27 -70 -84 -100 -128 -104 -156 -160 -222 -339
-399 -176 -175 -205 -214 -152 -209 26 3 92 -28 113 -53 8 -9 28 -42 44 -73
l30 -56 170 -6 c168 -6 171 -6 227 -38 110 -63 187 -161 217 -279 10 -37 33
-99 52 -137 28 -59 34 -81 34 -137 0 -37 -5 -72 -10 -77 -6 -6 -29 -13 -52
-17 l-41 -6 -19 52 c-56 162 -242 239 -383 158 -30 -17 -94 -70 -142 -118 -78
-78 -94 -99 -143 -202 -55 -113 -74 -190 -75 -299 0 -59 11 -65 175 -94 83
-14 191 -36 240 -48 l90 -22 166 -161 c148 -143 397 -360 486 -422 55 -39 264
-138 348 -165 44 -14 220 -63 390 -108 408 -107 428 -113 514 -139 88 -27 232
-120 293 -189 50 -57 136 -187 176 -267 17 -33 42 -68 56 -77 36 -24 93 -127
116 -210 22 -80 25 -183 10 -321 -10 -83 -9 -91 9 -109 19 -20 20 -20 112 2
58 14 139 45 216 82 148 71 210 127 310 282 36 56 104 142 152 192 247 261
429 508 468 635 39 127 33 150 -74 250 -65 61 -115 95 -406 275 -224 139 -477
329 -540 406 l-48 58 10 83 c22 189 35 360 36 468 0 155 -13 186 -104 238 -68
39 -81 45 -216 105 -118 52 -192 75 -302 92 -104 17 -238 59 -338 106 -37 18
-100 64 -165 123 -102 92 -153 146 -379 406 -208 239 -353 345 -611 447 -152
60 -495 153 -564 153 -6 0 -32 -21 -57 -47z"/>
<path id="hsinchu-img" d="M15223 26583 c-40 -4 -44 -7 -63 -50 -11 -25 -20 -56 -20 -69 0 -14
-4 -32 -9 -42 -8 -16 -36 -156 -66 -332 -18 -107 -51 -264 -64 -310 -6 -19
-11 -55 -11 -80 0 -25 -4 -61 -9 -80 -5 -19 -12 -56 -15 -82 -7 -61 9 -67 76
-29 42 24 55 27 74 19 21 -10 59 -74 78 -130 3 -10 12 -18 21 -18 8 0 15 -5
15 -12 0 -32 10 7 24 92 28 174 70 264 185 396 120 138 242 202 363 191 97 -9
187 -77 230 -174 21 -48 45 -76 59 -68 5 4 9 33 9 66 0 49 -7 73 -40 139 -22
44 -40 90 -40 102 0 63 -93 195 -170 242 -82 52 -126 61 -275 58 -101 -1 -144
1 -155 10 -8 7 -25 36 -38 63 -21 46 -86 108 -109 103 -4 -1 -27 -3 -50 -5z"/>
<path id="miaoli-img" d="M15030 25459 c-19 -12 -70 -56 -113 -98 -43 -42 -85 -79 -92 -84 -15
-8 -106 -115 -143 -169 -100 -143 -146 -225 -183 -323 -11 -31 -30 -60 -45
-70 -28 -18 -122 -45 -158 -45 -58 0 -268 -98 -348 -162 -68 -55 -190 -179
-253 -258 -95 -118 -240 -321 -264 -369 -13 -24 -42 -73 -65 -110 -23 -36 -70
-131 -105 -211 -75 -173 -95 -212 -181 -355 -113 -189 -208 -359 -215 -388 -4
-15 -11 -30 -16 -33 -5 -3 -9 -20 -9 -37 0 -30 16 -47 170 -182 179 -158 218
-185 262 -185 15 0 39 -5 53 -10 26 -10 138 -94 260 -194 75 -62 141 -91 275
-122 58 -13 130 -31 160 -39 50 -14 61 -14 124 1 100 23 141 44 266 128 135
93 185 118 275 140 127 32 182 36 254 20 89 -21 134 -49 228 -142 88 -89 76
-84 268 -97 89 -6 311 -42 432 -71 34 -7 76 -14 93 -14 17 0 40 -5 51 -10 10
-6 105 -26 210 -45 105 -20 199 -40 209 -45 28 -15 82 -12 149 9 68 21 496
243 761 394 96 55 195 111 220 125 24 14 114 61 199 104 203 104 286 163 353
250 74 98 106 151 146 243 34 80 34 81 35 240 1 157 0 161 -31 240 -22 56 -48
98 -85 140 -29 33 -77 101 -106 150 -73 122 -153 227 -204 267 -54 44 -109 66
-292 121 -82 25 -195 59 -250 76 -55 16 -206 57 -335 90 -267 68 -264 66 -454
167 -183 98 -366 242 -565 448 -99 101 -194 180 -243 200 -18 7 -73 21 -123
31 -154 29 -349 77 -363 88 -27 21 -106 132 -124 174 -22 49 -37 53 -88 22z"/>
<path id="taichung-img" d="M18785 23098 c-38 -21 -99 -55 -134 -74 -66 -36 -213 -79 -308 -90
l-52 -7 -63 -91 c-35 -50 -75 -108 -88 -129 -26 -39 -119 -103 -247 -169 -40
-21 -116 -63 -169 -93 -53 -31 -137 -77 -187 -102 -50 -25 -107 -55 -127 -68
-20 -13 -137 -75 -261 -138 -123 -63 -268 -140 -322 -171 -120 -69 -191 -101
-280 -126 -65 -18 -69 -18 -120 -1 -28 10 -83 24 -121 30 -39 7 -95 19 -125
27 -30 8 -73 14 -95 14 -38 0 -143 19 -306 56 -162 36 -295 57 -417 68 l-133
11 -74 81 c-85 92 -150 128 -252 139 -80 9 -200 -9 -273 -40 -33 -13 -123 -65
-200 -115 -137 -88 -278 -150 -343 -150 -24 0 -199 42 -313 75 -95 27 -183 79
-273 160 -80 72 -200 145 -240 145 -47 0 -116 35 -165 84 -127 126 -309 288
-315 280 -42 -57 -91 -141 -122 -209 -21 -46 -68 -135 -103 -197 -111 -195
-123 -220 -170 -339 -25 -63 -61 -144 -80 -180 -20 -35 -58 -140 -86 -234 -56
-187 -84 -251 -163 -369 -158 -237 -187 -282 -183 -293 2 -7 0 -15 -5 -18 -18
-11 -10 -44 13 -59 12 -8 51 -23 87 -32 94 -25 101 -34 90 -119 -14 -103 -12
-165 6 -225 13 -45 29 -67 97 -134 74 -73 215 -188 412 -337 81 -60 154 -96
277 -133 106 -32 160 -72 206 -149 30 -51 38 -57 66 -57 30 0 175 -69 449
-214 122 -64 210 -83 437 -91 261 -10 375 11 442 82 31 32 78 128 78 159 0 11
4 24 9 30 5 5 16 56 25 114 22 153 47 210 128 290 55 54 76 85 113 166 25 54
56 109 67 121 29 31 107 52 235 62 59 5 119 13 133 19 14 5 66 15 115 22 50 7
106 18 125 26 44 17 180 50 240 59 73 11 458 111 576 150 129 43 268 101 306
127 15 10 44 25 65 32 41 15 78 35 200 107 43 26 116 69 163 96 175 103 300
186 365 243 82 70 177 120 229 120 44 0 116 -19 116 -31 0 -4 61 -60 135 -125
146 -127 188 -175 264 -310 27 -49 56 -98 64 -109 14 -19 25 -20 343 -19 370
2 470 -5 551 -41 30 -14 61 -25 68 -25 6 0 31 23 54 50 60 71 84 84 164 90 80
6 99 21 76 61 -42 75 -139 281 -152 324 -9 28 -28 100 -42 160 -25 103 -27
121 -22 280 3 115 10 186 21 220 17 57 78 133 150 191 28 21 68 55 89 74 47
42 209 234 257 305 44 65 144 198 167 220 16 17 16 18 -2 31 -40 29 -55 30
-488 5 -178 -11 -189 -10 -226 8 -46 24 -134 118 -163 175 -11 22 -33 59 -48
81 -14 22 -33 56 -40 75 -16 40 -77 110 -94 109 -6 -1 -42 -19 -81 -41z"/>
<g id="kinmen-img">
<path d="M6567 22706 c-44 -16 -54 -24 -124 -97 -97 -102 -118 -145 -140 -284
-10 -60 -24 -69 -132 -84 -60 -8 -80 -7 -110 6 -71 30 -86 41 -118 84 -18 24
-43 58 -57 74 l-24 30 -69 -18 c-52 -13 -75 -25 -96 -50 -41 -47 -34 -94 36
-237 61 -124 63 -131 46 -178 -11 -32 -27 -41 -114 -63 -54 -14 -65 -23 -65
-56 0 -15 15 -32 48 -54 26 -18 59 -47 75 -65 36 -42 139 -94 188 -94 25 0 47
8 64 23 24 21 26 25 16 66 -17 76 28 137 163 220 127 78 247 117 352 116 75 0
112 -25 178 -118 64 -90 122 -118 173 -82 35 24 113 141 128 192 19 62 19 139
0 249 -19 108 -41 186 -67 237 -26 51 -113 138 -166 165 -55 28 -136 36 -185
18z"/>
<path d="M5280 22122 c-26 -12 -48 -40 -87 -105 -28 -49 -67 -109 -87 -134
-57 -73 -49 -84 42 -61 115 28 261 165 248 231 -8 39 -43 87 -64 87 -9 0 -33
-8 -52 -18z"/>
</g>
<path id="hualien-img" d="M19984 22642 c-10 -10 -46 -57 -78 -106 -91 -133 -319 -402 -404
-476 -93 -80 -176 -187 -193 -249 -9 -29 -14 -103 -14 -201 l0 -155 46 -135
c26 -74 70 -182 97 -240 99 -207 109 -250 68 -294 -21 -23 -31 -26 -97 -27
-99 -1 -114 -7 -154 -58 l-35 -43 5 -228 c3 -186 1 -231 -10 -246 -8 -11 -15
-26 -15 -35 0 -16 -36 -69 -107 -155 -203 -248 -326 -447 -363 -584 -14 -52
-2 -80 65 -159 127 -149 150 -208 148 -390 -2 -114 -6 -145 -27 -210 -14 -42
-35 -107 -46 -146 -30 -99 -92 -247 -140 -335 -22 -41 -47 -89 -55 -107 -18
-38 -48 -85 -115 -178 -69 -94 -156 -245 -164 -282 -6 -28 -2 -36 48 -83 30
-29 96 -80 146 -115 164 -114 186 -166 150 -370 -26 -150 -93 -431 -135 -565
-19 -58 -39 -137 -45 -175 -17 -97 -46 -219 -58 -241 -15 -28 -119 -124 -134
-124 -17 0 -124 -56 -163 -85 -17 -12 -43 -46 -59 -75 -24 -44 -30 -70 -39
-174 -11 -136 -29 -185 -79 -216 -40 -24 -147 -47 -283 -60 -60 -5 -127 -15
-148 -21 -55 -15 -101 -61 -128 -127 -46 -113 -150 -284 -219 -362 -112 -126
-138 -183 -106 -232 9 -14 19 -48 23 -75 10 -87 -29 -133 -127 -148 -68 -10
-201 -52 -238 -75 -42 -26 -72 -76 -72 -120 0 -101 92 -149 346 -179 50 -6
103 -20 137 -36 49 -24 57 -32 71 -73 18 -53 20 -99 5 -162 -6 -25 -12 -76
-13 -115 -3 -64 0 -74 30 -122 21 -33 53 -65 86 -86 29 -19 76 -49 103 -66 28
-18 93 -53 145 -78 52 -25 124 -64 160 -87 36 -23 112 -68 170 -100 58 -32
143 -80 190 -106 47 -26 108 -58 135 -70 68 -29 164 -79 197 -102 14 -10 31
-18 38 -18 7 0 24 -8 38 -18 15 -10 128 -69 252 -132 207 -104 300 -158 435
-254 28 -19 77 -45 110 -57 33 -12 67 -28 75 -34 24 -20 141 -39 193 -31 73
11 167 105 167 167 0 31 98 464 129 569 11 36 25 92 31 125 22 108 211 687
265 810 10 22 37 94 60 160 24 66 62 167 85 225 55 139 59 184 19 242 -140
200 -140 214 -7 295 99 60 249 136 298 151 19 6 84 31 144 56 136 58 180 60
240 14 22 -18 74 -64 114 -101 40 -38 79 -67 88 -65 27 5 53 89 53 169 0 63
-7 88 -50 197 -90 225 -97 311 -40 488 16 49 34 116 41 149 25 128 94 387 140
525 31 92 56 194 70 280 30 193 55 301 91 399 48 129 69 218 69 297 0 39 4 95
9 125 21 127 45 393 61 694 10 180 37 386 80 610 10 55 24 132 30 170 6 39 36
147 66 240 43 136 57 197 69 305 12 108 58 449 91 685 11 75 84 459 110 575
35 159 50 362 29 420 -22 61 -19 109 11 168 27 54 63 88 162 149 33 21 87 58
120 83 33 25 116 86 183 135 163 119 219 175 262 262 l36 71 -5 108 c-5 101
-18 178 -34 197 -8 9 -44 12 -270 27 -199 12 -665 6 -835 -13 -131 -14 -146
-18 -235 -60 -132 -63 -217 -79 -354 -67 -117 10 -298 64 -406 121 -30 16 -65
29 -76 29 -12 0 -46 16 -75 37 -29 20 -72 42 -95 49 -23 7 -55 19 -70 27 -55
28 -180 65 -324 96 -171 36 -171 36 -196 13z"/>
<path id="nantou-img" d="M17562 21260 c-64 -23 -131 -61 -175 -99 -30 -26 -100 -73 -429 -286
-141 -91 -361 -195 -528 -250 -63 -21 -151 -53 -195 -71 -93 -38 -270 -90
-440 -129 -66 -15 -165 -40 -219 -56 -107 -31 -349 -73 -512 -88 -115 -10
-178 -36 -196 -79 -50 -123 -72 -159 -143 -231 -41 -42 -82 -94 -91 -116 -9
-21 -19 -85 -23 -142 -7 -96 -11 -110 -54 -197 -78 -157 -177 -229 -357 -261
-82 -15 -316 -7 -459 15 -106 16 -163 40 -375 158 -126 71 -200 106 -220 106
-47 0 -214 -49 -236 -69 -11 -10 -27 -38 -37 -63 -16 -42 -16 -48 1 -116 10
-39 40 -123 66 -186 55 -133 105 -284 125 -382 25 -116 20 -332 -10 -479 -22
-104 -24 -131 -15 -168 24 -97 75 -158 187 -225 42 -25 81 -60 121 -109 53
-67 63 -74 127 -95 78 -26 100 -28 196 -17 65 8 65 7 93 -25 19 -24 26 -40 22
-59 -3 -14 -8 -51 -12 -81 -3 -30 -14 -68 -23 -83 -19 -34 -98 -73 -165 -82
-84 -11 -125 -72 -95 -138 9 -19 7 -41 -5 -95 -9 -42 -16 -116 -16 -179 0
-126 -13 -184 -71 -321 -44 -103 -59 -196 -58 -367 1 -161 27 -193 171 -206
51 -5 130 -16 176 -24 111 -21 205 -8 382 52 111 37 146 45 199 44 76 -3 101
-14 161 -76 25 -26 68 -61 95 -79 80 -51 253 -140 343 -176 98 -39 172 -99
197 -162 14 -36 16 -61 10 -149 -8 -133 -1 -149 98 -222 86 -64 161 -144 229
-245 65 -97 112 -148 162 -177 67 -39 217 -71 441 -95 116 -12 213 -24 216
-26 12 -7 776 -4 809 4 28 6 51 28 117 107 150 182 180 224 207 294 9 24 30
63 46 87 17 23 30 45 30 48 0 17 106 149 125 156 13 5 90 14 172 20 193 15
278 43 307 98 12 24 23 129 26 243 0 43 75 143 143 195 34 25 96 64 138 85
113 56 113 56 154 274 8 44 34 150 59 235 24 85 58 216 75 290 17 74 44 191
60 259 27 112 29 127 16 157 -17 41 -115 140 -186 187 -30 20 -82 65 -116 100
-93 95 -97 78 94 354 62 91 232 403 278 513 26 62 65 183 96 298 13 49 22 121
26 197 4 107 2 127 -18 180 -21 58 -35 80 -126 203 -82 110 -84 114 -79 157 3
22 21 74 40 115 39 85 241 385 312 463 26 29 72 90 103 137 l56 85 3 194 c2
191 2 194 -21 225 -32 42 -94 62 -247 80 -165 20 -361 22 -543 6 -179 -16
-172 -19 -259 119 -110 176 -250 328 -402 439 -37 27 -83 28 -154 2z"/>
<path id="changhua-img" d="M11796 20730 c-11 -22 -39 -64 -62 -92 -24 -29 -54 -66 -67 -83 -80
-99 -231 -390 -271 -520 -13 -41 -98 -193 -140 -250 -12 -16 -53 -88 -90 -160
-84 -161 -316 -512 -409 -620 -87 -100 -201 -250 -263 -346 -26 -41 -71 -110
-100 -154 -155 -237 -259 -494 -284 -698 -8 -67 -15 -86 -51 -137 -30 -42 -39
-64 -34 -79 6 -21 99 -91 120 -91 6 0 26 -8 45 -19 44 -23 113 -34 210 -32 59
1 97 10 190 43 304 108 356 121 493 126 220 7 367 -18 545 -94 223 -95 408
-133 652 -134 58 -1 141 -5 185 -10 44 -6 172 -17 285 -25 197 -15 464 -37
600 -51 59 -5 76 -2 185 35 98 33 126 47 153 76 27 29 33 43 30 72 -3 32 -7
38 -43 50 -21 7 -55 15 -75 17 -118 13 -151 20 -202 44 -41 18 -63 36 -80 64
-53 89 -77 115 -129 142 -81 41 -146 91 -176 137 -26 39 -27 46 -25 153 2 61
12 176 23 256 26 186 26 314 -2 417 -36 137 -109 345 -154 440 -46 96 -71 198
-59 236 14 47 68 82 169 109 143 38 24 202 -180 248 -27 7 -70 21 -94 33 -49
24 -174 116 -271 201 -35 31 -83 68 -107 82 -49 29 -161 109 -214 153 -24 21
-43 50 -57 88 -20 57 -43 154 -43 183 0 8 1 35 1 59 0 24 5 52 11 63 18 34
-12 63 -90 87 -95 29 -103 28 -125 -19z"/>
<path id="yunlin-img" d="M11090 17562 c-89 -6 -380 -79 -422 -105 -13 -8 -61 -27 -108 -43
-76 -25 -99 -28 -215 -29 -128 0 -131 1 -230 40 -130 51 -181 53 -248 7 -26
-18 -47 -36 -47 -40 0 -4 -15 -16 -32 -27 -18 -10 -68 -52 -111 -94 -95 -92
-158 -203 -229 -406 -27 -77 -64 -180 -83 -230 -18 -49 -54 -147 -79 -218 -25
-70 -53 -141 -61 -157 -9 -17 -32 -76 -51 -133 -20 -56 -58 -165 -85 -242 -27
-77 -63 -207 -80 -289 -16 -82 -32 -153 -35 -157 -4 -6 -27 -209 -41 -364 -4
-44 1 -88 16 -155 19 -83 26 -97 49 -108 36 -17 42 -16 164 14 104 27 108 27
152 10 24 -9 90 -46 146 -81 87 -56 105 -63 133 -58 52 10 151 107 193 188 21
39 54 100 76 137 l39 68 117 36 c64 20 141 45 170 55 29 10 60 19 69 19 28 0
252 119 358 190 55 37 127 93 160 125 33 32 103 92 155 133 52 42 113 92 135
112 81 75 228 175 320 219 84 39 149 50 422 67 l262 16 72 -22 c60 -18 80 -30
116 -68 24 -26 56 -67 70 -92 61 -103 172 -186 278 -208 50 -10 353 -9 535 3
52 3 249 8 438 10 189 3 347 7 353 10 10 7 76 -5 206 -36 45 -10 85 -19 89
-19 4 0 4 40 1 89 -10 131 26 225 93 246 50 16 0 55 -70 55 -22 0 -66 -9 -97
-19 -32 -10 -80 -24 -108 -31 -27 -7 -72 -24 -100 -38 -45 -23 -61 -26 -165
-25 -63 0 -171 4 -240 8 -162 10 -199 26 -231 98 -21 47 -23 66 -22 207 1 98
7 179 16 220 24 102 58 224 66 235 4 5 17 35 29 65 18 45 22 82 26 205 7 207
4 220 -52 256 -26 17 -60 29 -78 29 -18 0 -108 11 -201 25 -191 27 -369 40
-763 55 -151 5 -295 12 -320 14 -65 7 -251 62 -341 102 -43 19 -83 34 -89 34
-6 0 -46 14 -87 30 -104 42 -290 71 -403 62z"/>
<g id="penghu-img">
<path d="M4110 17155 c0 -27 -1 -28 -19 -10 -19 16 -22 16 -71 -26 -64 -54
-70 -65 -70 -128 0 -43 4 -53 26 -67 24 -16 28 -16 70 4 24 12 54 22 65 22 11
0 31 11 44 25 42 41 29 142 -24 189 -21 19 -21 19 -21 -9z"/>
<path d="M3858 16373 c-50 -3 -68 -8 -68 -18 0 -8 -21 -18 -57 -26 -32 -7 -63
-16 -69 -21 -6 -4 -16 -33 -22 -63 -10 -48 -9 -60 9 -100 11 -25 24 -45 29
-45 5 0 35 25 67 55 49 46 64 55 95 55 53 0 61 -21 53 -134 -7 -91 -7 -92 21
-125 30 -36 100 -71 141 -71 31 0 52 25 53 63 0 29 -32 101 -50 112 -17 11
-11 72 11 109 19 33 20 37 5 110 -9 41 -16 77 -16 80 0 9 -74 26 -105 24 -16
-1 -60 -3 -97 -5z"/>
<path d="M3330 16000 c-14 -4 -48 -8 -75 -9 -47 -1 -89 -19 -107 -45 -15 -21
-8 -132 9 -167 19 -37 20 -64 8 -264 -4 -66 -12 -128 -17 -137 -6 -13 -22 -18
-56 -19 -26 0 -55 -3 -64 -7 -26 -11 -77 -97 -85 -144 l-6 -42 69 59 c123 107
150 110 244 35 47 -38 66 -47 72 -38 13 22 9 57 -13 105 -26 56 -22 92 23 201
29 72 31 86 34 217 2 137 2 140 29 162 14 13 32 23 40 23 13 0 61 58 54 64
-10 9 -137 14 -159 6z"/>
<path d="M4501 15709 c-19 -19 -31 -41 -31 -57 0 -46 -31 -94 -69 -106 -24 -8
-41 -23 -57 -51 -52 -93 -72 -2 -29 131 24 74 25 80 8 91 -25 19 -30 17 -73
-28 -35 -37 -43 -41 -74 -35 -43 8 -48 0 -57 -79 -5 -48 -15 -75 -48 -128 -24
-37 -49 -67 -56 -67 -7 0 -21 12 -30 27 -15 23 -16 33 -5 80 13 60 14 58 -16
67 -18 5 -26 0 -44 -29 -25 -40 -47 -55 -83 -55 -16 0 -37 -14 -61 -40 -33
-37 -36 -45 -36 -100 0 -33 4 -60 9 -60 5 0 23 16 39 35 16 20 44 40 63 45 46
14 60 -6 56 -82 -1 -44 2 -61 16 -75 15 -15 21 -16 50 -3 17 7 62 15 98 17 97
6 102 -7 36 -93 -30 -38 -64 -88 -77 -111 l-24 -43 -120 0 c-157 0 -225 8
-235 29 -5 9 -11 36 -14 60 -5 37 -2 47 19 68 13 13 24 25 24 27 0 7 -58 28
-84 30 -35 4 -40 -7 -22 -46 8 -18 16 -63 19 -101 3 -37 11 -75 18 -84 23 -28
91 -53 145 -53 40 0 55 -5 72 -23 19 -21 22 -33 20 -96 -4 -102 9 -109 94 -52
48 32 69 41 88 36 79 -20 89 -19 128 19 36 36 37 38 36 109 0 39 -4 83 -8 97
-6 22 1 30 64 75 76 53 118 103 170 200 48 90 51 92 118 87 32 -2 68 -11 82
-21 14 -10 50 -23 80 -30 30 -7 62 -15 71 -17 9 -3 27 -20 40 -38 25 -37 26
-37 99 17 l25 18 -24 20 c-13 10 -32 19 -42 19 -59 0 -106 66 -96 137 20 140
20 138 -4 165 -31 32 -144 82 -172 74 -25 -6 -47 10 -47 35 0 27 -14 24 -49
-12z"/>
<path d="M3322 14748 c-17 -17 -15 -45 4 -52 34 -13 54 -7 54 17 0 24 -17 47
-35 47 -6 0 -16 -5 -23 -12z"/>
<path d="M3500 14625 c-7 -8 -19 -15 -26 -15 -8 0 -28 -13 -46 -30 -17 -16
-38 -31 -47 -32 -9 -1 -23 -2 -31 -3 -38 -3 -49 -34 -34 -92 9 -32 21 -29 66
17 48 51 73 60 154 60 61 0 64 1 64 24 0 30 -45 86 -70 86 -10 0 -23 -7 -30
-15z"/>
<path d="M3187 13563 c-12 -11 -7 -66 9 -113 23 -67 13 -103 -46 -165 -33 -36
-50 -62 -50 -79 0 -14 4 -26 8 -26 5 0 37 18 71 40 34 22 67 40 74 40 7 0 30
-9 52 -20 43 -22 63 -14 46 18 -15 29 -13 83 4 106 20 27 19 88 -2 117 -10 13
-23 33 -29 44 -6 11 -22 26 -35 32 -26 14 -91 17 -102 6z"/>
<path d="M3499 13389 c-1 -8 -1 -18 0 -23 1 -5 -8 -19 -19 -31 -22 -24 -24
-55 -3 -62 6 -2 19 5 30 15 10 11 27 24 38 30 22 11 72 5 81 -9 10 -17 24 -9
24 14 0 24 -12 32 -80 56 -64 23 -70 24 -71 10z"/>
<path d="M2645 11881 c-61 -35 -73 -48 -81 -89 l-6 -32 48 0 c63 0 94 -9 94
-26 0 -7 -9 -30 -19 -51 -27 -53 -32 -76 -21 -93 8 -12 18 -7 57 31 26 25 63
56 81 68 17 12 32 29 32 37 0 8 18 34 40 58 22 24 40 46 40 50 0 3 -19 6 -43
6 -36 0 -49 6 -77 35 -43 44 -77 45 -145 6z"/>
</g>
<path id="chiayicounty-img" d="M11750 15989 c-154 -13 -265 -35 -325 -64 -66 -32 -181 -100 -216
-128 -15 -12 -78 -60 -139 -107 -62 -47 -158 -125 -215 -175 -121 -107 -242
-201 -299 -234 -104 -60 -238 -121 -306 -140 -41 -12 -122 -38 -180 -57 -92
-31 -111 -42 -152 -84 -25 -27 -58 -70 -73 -97 -113 -200 -200 -282 -281 -267
-19 3 -62 25 -97 47 -102 66 -167 97 -206 97 -36 1 -199 -35 -236 -52 -19 -8
-20 -19 -21 -171 -2 -335 -13 -493 -44 -607 -38 -142 -46 -193 -65 -420 -9
-107 -20 -242 -25 -300 -16 -165 -14 -179 16 -190 21 -8 37 -4 87 20 74 36
139 39 198 10 23 -10 116 -39 207 -64 92 -25 188 -54 214 -66 25 -11 66 -23
90 -26 50 -7 41 -14 170 136 75 88 124 124 153 115 11 -4 41 -11 68 -17 41 -9
50 -8 67 7 11 10 20 23 20 30 0 11 19 56 63 144 44 89 356 389 502 483 95 62
240 133 306 151 63 18 179 32 229 28 19 -1 65 -11 101 -22 80 -23 127 -24 199
-4 107 30 411 84 430 77 11 -4 66 -52 123 -107 57 -55 152 -145 213 -200 130
-120 345 -346 357 -377 5 -15 2 -27 -11 -42 -23 -26 -92 -152 -92 -169 0 -7
32 -64 71 -127 116 -187 128 -208 171 -309 118 -280 141 -328 164 -348 14 -13
29 -23 33 -23 5 0 31 20 57 45 41 38 60 47 119 59 112 24 180 28 258 17 39 -6
102 -12 139 -14 62 -4 69 -3 95 23 16 16 35 41 43 57 8 15 26 40 40 55 14 15
55 85 90 155 35 70 76 146 91 168 15 22 33 56 41 75 24 57 94 136 155 178 77
52 241 128 313 145 31 8 172 91 223 132 37 29 129 136 177 205 124 179 482
524 607 586 26 13 55 28 63 33 8 5 29 16 45 24 138 66 256 154 333 248 31 38
60 78 64 89 9 24 -9 28 -177 39 -146 9 -208 28 -287 86 -59 43 -196 207 -249
296 -36 62 -85 111 -166 167 -45 32 -64 94 -53 173 10 67 0 141 -24 187 -24
47 -194 167 -271 192 -87 27 -213 86 -276 127 -101 65 -130 59 -180 -37 -19
-38 -22 -59 -22 -135 1 -63 -3 -96 -12 -109 -15 -20 -19 -20 -171 8 -119 22
-282 22 -804 1 -58 -2 -247 -7 -420 -11 l-315 -6 -60 37 c-72 43 -105 75 -236
221 -88 99 -106 113 -146 123 -65 17 -218 21 -353 10z m-360 -1087 c190 -40
242 -57 266 -84 30 -35 52 -88 59 -142 5 -38 15 -58 49 -95 85 -94 94 -135 50
-226 -37 -75 -119 -165 -150 -165 -33 0 -66 35 -103 108 -27 53 -45 72 -71 72
-4 0 -17 -19 -28 -43 -23 -49 -99 -123 -136 -133 -15 -3 -42 -3 -61 0 -41 8
-79 59 -94 127 -5 23 -14 45 -20 49 -6 3 -51 12 -99 19 -94 13 -119 25 -185
88 -99 95 -159 313 -98 360 24 19 56 15 122 -12 43 -18 79 -26 131 -27 67 -1
73 1 94 28 13 15 24 42 26 58 2 21 11 35 28 44 29 14 26 15 220 -26z"/>
<path id="chiayi-img" d="M11199 14873 c-8 -10 -20 -30 -27 -45 -14 -35 -80 -68 -147 -75 -38
-4 -71 1 -123 17 -39 12 -78 20 -87 17 -50 -20 28 -239 110 -309 23 -19 118
-38 189 -38 60 0 96 -31 96 -85 0 -20 9 -54 20 -75 18 -35 25 -40 55 -40 45 0
89 39 139 123 21 36 45 68 53 72 22 8 55 -26 114 -117 27 -43 56 -78 63 -78
22 0 112 103 126 144 22 69 9 110 -59 181 -50 52 -61 69 -61 97 0 40 -46 119
-84 143 -13 9 -62 23 -108 31 -46 9 -112 22 -148 31 -36 8 -74 17 -85 20 -12
3 -27 -3 -36 -14z"/>
<path id="taitung-img" d="M20835 14986 c-60 -23 -132 -54 -160 -67 -304 -153 -322 -165 -310
-218 4 -18 31 -64 61 -103 44 -58 54 -79 54 -110 0 -53 -41 -197 -100 -348
-111 -286 -222 -611 -290 -845 -47 -163 -186 -718 -210 -838 -24 -122 -86
-223 -157 -258 -41 -21 -63 -24 -153 -24 l-105 0 -150 89 c-233 138 -805 456
-820 456 -8 0 -430 221 -521 273 -359 203 -458 259 -520 290 -73 37 -194 144
-194 172 0 8 -10 19 -21 26 -23 12 -89 -13 -224 -83 -33 -17 -98 -50 -145 -74
-94 -48 -179 -125 -397 -359 -197 -211 -260 -290 -304 -377 -88 -175 -115
-342 -129 -808 -5 -157 -16 -364 -25 -460 -9 -96 -20 -236 -24 -310 -8 -125
-23 -190 -42 -190 -17 0 -161 -134 -205 -191 -54 -70 -71 -128 -80 -269 -6
-86 -4 -101 19 -160 13 -36 43 -93 65 -128 66 -103 80 -139 107 -297 14 -82
31 -166 37 -185 13 -43 86 -119 181 -191 91 -68 234 -226 274 -304 38 -74 73
-234 73 -336 0 -42 -7 -118 -16 -169 -15 -87 -20 -98 -59 -144 -24 -27 -75
-70 -114 -96 -69 -46 -120 -70 -336 -160 -55 -23 -107 -47 -115 -55 -8 -7 -56
-34 -106 -60 -80 -42 -94 -53 -121 -99 -39 -66 -68 -146 -99 -271 -45 -182
-68 -248 -149 -435 -136 -312 -171 -501 -126 -666 22 -76 68 -200 106 -279 56
-119 160 -419 191 -550 16 -68 19 -121 19 -362 0 -236 3 -285 15 -296 8 -8 61
-26 118 -40 111 -29 168 -63 176 -107 3 -14 8 -65 11 -115 14 -199 52 -295
150 -379 145 -125 255 -192 360 -219 107 -27 308 -55 430 -59 l70 -3 7 120 c5
66 10 190 11 275 2 85 11 193 20 240 9 47 23 141 32 210 9 69 25 151 36 182
10 32 19 65 19 74 0 9 29 46 64 82 35 37 76 92 91 122 40 80 85 228 85 282 0
26 11 116 25 200 14 84 25 179 25 213 1 163 67 464 171 781 48 144 140 345
193 419 11 16 33 52 47 80 45 89 159 230 320 399 53 56 316 362 584 681 268
319 515 607 549 640 75 74 122 144 131 195 5 29 -1 60 -24 128 -50 145 -38
215 47 276 42 29 47 30 180 36 131 5 139 6 174 33 27 21 124 168 363 555 180
290 342 550 360 577 18 28 57 88 88 135 30 47 88 129 128 182 103 136 238 350
271 432 55 133 56 284 3 426 -46 124 -93 319 -100 412 -8 115 5 161 110 373
98 200 189 430 269 680 32 99 69 207 82 240 53 132 59 191 58 567 -1 345 -1
346 -25 384 -13 21 -39 52 -58 69 -20 16 -61 54 -93 83 -72 65 -86 65 -233 8z"/>
<path id="kaohsiung-img" d="M16130 14619 c-19 -6 -50 -13 -68 -16 -26 -4 -42 -18 -75 -63 -77
-105 -187 -194 -347 -280 -131 -71 -189 -108 -284 -185 -38 -30 -73 -55 -78
-55 -4 0 -42 -35 -84 -77 -71 -72 -117 -131 -289 -368 -141 -193 -243 -271
-484 -365 -146 -58 -257 -125 -310 -186 -33 -39 -143 -219 -186 -304 -12 -25
-39 -76 -60 -115 -107 -197 -121 -239 -145 -424 -7 -47 -22 -118 -36 -159 -13
-41 -24 -80 -24 -87 0 -7 -16 -44 -35 -82 -29 -58 -56 -89 -162 -189 -284
-266 -353 -333 -473 -454 -223 -226 -314 -323 -400 -430 -46 -58 -101 -125
-122 -149 -21 -24 -58 -74 -82 -110 -24 -36 -81 -109 -128 -161 -46 -52 -110
-130 -141 -172 -160 -218 -450 -554 -558 -647 -31 -26 -81 -55 -127 -73 -148
-57 -180 -62 -407 -62 -222 0 -266 6 -599 84 -118 27 -300 111 -336 155 -19
23 -52 18 -92 -12 -60 -46 -118 -131 -118 -173 0 -21 58 -139 83 -170 14 -16
53 -96 106 -215 18 -38 41 -88 53 -110 11 -22 70 -136 130 -254 60 -117 123
-234 139 -259 16 -25 29 -49 29 -52 0 -11 81 -148 145 -245 32 -49 82 -134
111 -187 28 -54 72 -126 97 -160 76 -107 107 -179 107 -247 0 -75 -19 -95
-111 -115 -14 -3 -38 -15 -52 -27 -23 -17 -27 -28 -27 -68 0 -40 8 -61 49
-127 26 -43 67 -110 91 -149 24 -38 64 -101 90 -140 102 -151 565 -605 770
-757 42 -30 88 -70 104 -89 69 -82 236 -189 294 -189 34 1 41 6 78 59 102 142
149 261 188 476 27 144 47 227 68 274 28 62 42 140 34 183 -5 29 -17 46 -54
73 -67 49 -82 66 -100 105 -14 31 -17 146 -24 904 -9 1012 -18 919 99 972 41
19 120 46 176 60 98 25 109 26 289 20 l186 -6 89 72 c238 194 272 236 273 331
0 155 119 214 475 238 158 10 259 23 302 39 51 19 93 -1 149 -71 27 -33 62
-76 79 -96 29 -35 113 -83 147 -83 9 0 35 23 58 50 65 78 130 98 242 75 39 -9
95 -29 124 -46 48 -27 154 -130 154 -149 0 -4 14 -10 32 -14 45 -9 69 11 133
108 145 219 305 277 475 172 34 -21 57 -30 61 -24 4 6 0 36 -8 67 -8 31 -23
102 -32 159 -16 87 -24 111 -57 158 -84 122 -95 141 -114 203 -24 76 -25 128
-5 241 26 150 97 255 250 371 l60 45 3 64 c1 36 13 181 27 322 14 142 25 300
25 351 0 52 7 190 15 308 8 118 16 262 19 320 3 58 7 112 10 120 29 87 85 227
112 282 56 110 98 162 279 347 94 96 209 215 256 263 83 88 86 90 259 173 275
132 260 122 292 186 18 37 32 84 39 137 9 72 8 86 -9 124 -16 36 -26 45 -68
59 -27 9 -80 20 -119 23 -106 10 -239 34 -277 49 -37 16 -94 81 -103 119 -4
14 -2 50 5 81 9 46 19 62 53 91 58 50 137 85 226 101 120 21 155 36 162 70 8
44 -8 79 -51 109 -46 32 -72 35 -306 35 -99 0 -223 4 -275 9 -161 17 -322 21
-359 10z"/>
<path id="tainan-img" d="M11830 13979 c-69 -11 -166 -33 -217 -49 -109 -36 -148 -37 -239 -9
-95 29 -146 31 -254 8 -91 -20 -238 -83 -330 -143 -19 -12 -56 -36 -82 -52
-106 -66 -176 -122 -274 -217 -87 -84 -112 -115 -154 -194 -27 -51 -54 -113
-59 -136 -10 -44 -73 -112 -96 -103 -6 2 -41 7 -77 11 -59 6 -69 5 -105 -18
-22 -14 -61 -54 -86 -89 -86 -117 -99 -128 -145 -128 -45 0 -218 51 -427 125
-146 52 -227 61 -280 32 -16 -9 -42 -17 -57 -17 -42 0 -78 -18 -78 -38 0 -10
-4 -22 -9 -27 -5 -6 -15 -91 -21 -190 -16 -254 -30 -319 -104 -498 -35 -83
-70 -183 -79 -222 -48 -217 -51 -240 -52 -420 0 -167 2 -187 27 -270 29 -99
65 -278 79 -395 16 -134 30 -192 54 -229 31 -47 117 -135 189 -191 32 -25 93
-86 137 -136 88 -103 227 -237 303 -294 76 -56 127 -114 197 -220 88 -134 207
-288 228 -295 10 -3 29 -1 42 4 23 9 99 70 147 119 32 32 70 28 112 -11 46
-44 184 -106 257 -117 32 -4 110 -20 173 -33 278 -61 472 -77 635 -53 108 16
205 33 236 42 18 5 26 12 149 140 128 134 261 283 343 385 37 46 106 129 152
184 47 55 110 138 141 184 32 46 71 100 88 119 17 19 56 68 86 107 164 214
520 591 799 845 261 237 342 322 381 400 54 109 110 321 110 420 0 48 -1 49
-42 64 -54 21 -290 36 -381 25 -74 -9 -110 -25 -162 -70 -24 -22 -49 -33 -79
-36 -40 -5 -45 -3 -69 28 -45 61 -95 162 -137 282 -43 124 -109 253 -202 397
-66 101 -88 144 -88 165 0 8 18 38 39 65 44 55 66 110 57 143 -8 34 -620 629
-643 626 -4 -1 -64 -10 -133 -20z"/>
<path id="pingtung-img" d="M15504 9608 c-27 -18 -62 -54 -79 -79 -16 -25 -54 -72 -84 -105 -29
-32 -58 -67 -63 -79 -13 -27 -81 -75 -109 -75 -15 0 -53 32 -118 100 -166 172
-278 195 -396 80 -52 -50 -78 -60 -142 -50 -78 13 -115 37 -198 133 -42 48
-80 88 -83 88 -41 7 -68 6 -90 -2 -49 -19 -256 -51 -357 -55 -138 -5 -191 -18
-255 -63 -55 -38 -55 -38 -61 -98 -8 -86 -50 -144 -185 -258 -38 -32 -71 -61
-74 -65 -8 -11 -152 -115 -177 -129 -16 -8 -73 -9 -205 -5 -205 8 -292 -2
-373 -41 -92 -44 -85 24 -85 -877 0 -912 -5 -861 90 -965 63 -69 84 -134 78
-242 -3 -54 -12 -93 -30 -133 -29 -62 -44 -122 -82 -328 -13 -74 -27 -146 -30
-160 -9 -51 -51 -147 -86 -200 -56 -83 -70 -115 -70 -158 0 -44 23 -66 120
-113 30 -15 82 -43 115 -63 84 -51 120 -43 234 56 24 21 52 38 63 38 30 0 90
-35 128 -76 44 -47 274 -231 315 -251 46 -23 215 -173 555 -493 153 -144 725
-636 865 -744 39 -30 85 -117 85 -160 0 -33 139 -297 161 -304 5 -2 9 -7 9
-11 0 -5 105 -165 234 -356 218 -323 235 -351 242 -403 10 -78 -6 -153 -69
-337 -71 -209 -84 -282 -62 -366 18 -73 92 -233 129 -281 14 -18 54 -55 90
-83 36 -27 68 -58 71 -67 4 -10 27 -42 51 -70 76 -89 190 -304 236 -446 20
-63 68 -132 92 -132 22 0 75 64 91 110 13 35 15 65 11 130 -8 104 14 175 61
203 25 15 101 -38 218 -153 66 -65 130 -121 143 -124 33 -11 153 -84 184 -114
26 -24 48 -82 62 -163 7 -37 53 -108 71 -109 16 0 42 50 49 95 17 111 38 414
41 605 2 118 10 306 19 417 18 242 28 270 155 436 62 80 84 118 88 147 5 37 2
41 -67 110 -39 40 -80 91 -90 114 -29 68 -40 225 -41 579 0 183 -4 364 -8 402
-14 116 -34 225 -42 225 -5 0 -6 6 -3 13 10 26 -23 37 -147 47 -181 15 -284
30 -369 52 -180 46 -435 230 -502 361 -11 22 -26 75 -34 116 -7 42 -18 100
-24 130 -5 29 -10 72 -10 93 0 73 -81 126 -217 143 -56 6 -91 24 -100 49 -4
12 -6 146 -4 299 2 273 2 279 -23 355 -13 42 -34 106 -45 142 -39 131 -121
359 -181 510 -98 243 -107 291 -85 422 17 95 86 307 142 433 51 116 61 147 89
275 14 63 38 158 54 211 17 53 30 102 30 110 0 8 13 41 29 74 35 73 138 177
213 217 135 70 330 159 414 188 28 10 64 25 81 34 48 24 139 112 158 152 46
97 56 332 18 449 -35 111 -47 128 -203 285 -152 154 -230 219 -399 333 -73 50
-90 57 -131 57 -37 0 -58 -7 -96 -32z"/>
</g>
</svg>
