<?xml version="1.0" standalone="no"?>
<!DOCTYPE svg PUBLIC "-//W3C//DTD SVG 20010904//EN"
 "http://www.w3.org/TR/2001/REC-SVG-20010904/DTD/svg10.dtd">
<svg version="1.0" xmlns="http://www.w3.org/2000/svg"
 width="1584.000000pt" height="1584.000000pt" viewBox="0 0 1584.000000 1584.000000"
 preserveAspectRatio="xMidYMid meet">

<g transform="translate(0.000000,1584.000000) scale(0.100000,-0.100000)"
fill="#000000" stroke="none">
<path id="my-path" d="M10575 11516 c-51 -23 -68 -51 -73 -119 -3 -39 -11 -71 -23 -85 -26
-34 -52 -119 -45 -148 10 -38 61 -64 127 -64 61 0 117 29 173 89 17 17 35 31
41 31 7 0 15 -24 18 -57 4 -32 10 -79 13 -105 13 -98 -11 -140 -60 -103 -27
20 -96 19 -122 -3 -12 -9 -34 -36 -48 -59 -59 -96 -136 -24 -136 126 0 83 -11
115 -53 159 -43 44 -89 56 -147 37 -25 -8 -57 -17 -72 -20 -51 -10 -67 -62
-77 -248 -6 -116 -13 -172 -24 -194 -21 -40 -97 -105 -169 -143 -32 -17 -64
-41 -73 -53 -37 -53 -7 -176 66 -267 44 -55 73 -58 150 -18 l63 33 225 0 c213
0 229 1 274 22 27 13 62 34 79 48 26 22 33 24 45 13 7 -8 16 -38 20 -67 8 -74
35 -102 99 -108 84 -8 185 50 231 132 7 12 26 19 64 22 74 6 107 21 124 54 27
51 19 76 -43 142 -75 79 -125 143 -147 186 -15 30 -17 55 -13 162 6 169 -3
240 -36 283 -25 33 -25 38 -19 128 5 76 3 100 -11 126 -30 58 -96 70 -152 27
-46 -35 -83 -32 -134 10 -23 19 -47 35 -53 35 -7 0 -21 2 -32 5 -11 3 -33 -1
-50 -9z m114 -91 c38 -31 51 -35 100 -35 45 0 64 5 91 25 18 13 37 22 42 19
24 -15 29 -61 17 -142 -12 -80 -12 -84 10 -110 50 -62 54 -85 47 -253 -6 -129
-5 -163 8 -193 17 -42 82 -128 157 -210 59 -65 59 -86 2 -86 -74 0 -111 -18
-149 -70 -40 -56 -106 -93 -156 -88 -35 3 -41 15 -53 89 -13 88 -88 114 -165
58 -77 -56 -104 -61 -350 -62 l-225 -2 -49 -27 c-26 -15 -51 -26 -55 -23 -18
11 -64 87 -75 127 -18 59 -8 79 61 118 89 50 150 107 179 166 23 47 26 68 31
196 5 162 15 208 44 208 10 0 36 7 58 16 74 29 105 -11 114 -148 4 -57 13
-100 26 -126 59 -115 165 -125 232 -21 16 26 36 50 42 52 7 2 29 -4 49 -14 55
-28 102 -25 128 9 21 25 22 34 16 147 -8 162 -16 228 -28 243 -15 17 -69 15
-98 -5 -14 -9 -49 -38 -78 -64 -56 -52 -105 -69 -141 -50 -28 16 -27 26 14
107 25 48 35 82 35 115 0 25 5 50 12 57 21 21 62 13 107 -23z" fill="#000000"/>
</g>
</svg>
