<?xml version="1.0" standalone="no"?>
<!DOCTYPE svg PUBLIC "-//W3C//DTD SVG 20010904//EN"
 "http://www.w3.org/TR/2001/REC-SVG-20010904/DTD/svg10.dtd">
<svg version="1.0" xmlns="http://www.w3.org/2000/svg"
 width="1584.000000pt" height="1584.000000pt" viewBox="0 0 1584.000000 1584.000000"
 preserveAspectRatio="xMidYMid meet" fill="oceanblue" stroke="lightblue" stroke-width="10px">

<g transform="translate(0.000000,1584.000000) scale(0.100000,-0.100000)">
<path id="hokkaido-img" d="M10753 15714 c-19 -16 -24 -33 -29 -102 l-7 -84 -51 -40 c-59 -46
-78 -83 -78 -151 0 -56 40 -126 139 -239 92 -108 124 -217 84 -296 -15 -30
-19 -69 -24 -201 -6 -162 -6 -164 -34 -193 l-27 -29 26 -22 c25 -21 26 -28 32
-148 3 -69 3 -140 0 -158 -5 -23 -27 -52 -70 -94 -85 -80 -107 -151 -51 -159
21 -3 22 -8 25 -154 2 -148 2 -152 -25 -204 -21 -40 -39 -59 -72 -77 -41 -21
-57 -23 -195 -23 l-151 0 -27 32 -27 33 -96 0 -97 0 -34 -37 c-20 -22 -34 -48
-34 -63 0 -42 28 -97 72 -142 36 -37 40 -47 40 -87 -1 -25 -11 -64 -23 -88
-34 -66 -143 -166 -247 -227 -100 -58 -135 -95 -170 -178 -19 -44 -22 -71 -22
-177 0 -133 8 -167 44 -184 33 -15 155 -108 210 -160 58 -56 72 -86 81 -175
l7 -69 -56 -52 c-65 -60 -83 -106 -67 -177 17 -75 88 -149 143 -149 8 0 30 -7
47 -16 31 -16 34 -15 59 3 51 38 66 79 67 178 0 100 14 135 90 223 58 67 66
68 119 22 28 -24 61 -42 84 -45 20 -4 52 -11 70 -15 19 -5 44 -5 56 0 32 12
148 139 144 158 -2 11 -38 29 -108 53 -184 63 -180 60 -180 118 0 82 1 81
-113 81 -134 0 -207 20 -263 74 -39 38 -43 46 -49 109 -11 101 -2 143 37 184
51 53 88 71 165 83 93 15 140 2 184 -47 30 -35 43 -60 83 -157 16 -39 16 -39
37 -20 12 10 69 74 127 142 58 68 117 129 131 136 14 8 73 24 129 36 81 17
127 21 210 18 96 -3 112 -6 152 -31 135 -83 183 -116 227 -158 27 -26 60 -52
74 -59 13 -7 42 -27 64 -44 74 -59 169 -96 324 -127 114 -23 164 -38 229 -71
45 -22 85 -38 88 -35 4 3 10 100 15 214 11 246 19 293 64 364 19 30 45 77 59
104 13 28 39 64 57 81 19 17 59 63 89 103 54 72 255 267 297 289 34 19 93 14
173 -13 52 -18 95 -25 147 -25 40 0 73 3 73 7 0 4 -12 24 -27 45 -62 91 0 174
73 97 60 -63 83 -59 169 32 38 39 74 63 145 96 110 51 129 67 176 145 19 32
49 69 67 83 42 32 19 33 -67 0 -37 -14 -81 -25 -99 -25 -45 0 -98 39 -137 102
-19 29 -62 97 -97 150 -74 112 -103 206 -103 334 0 86 11 117 74 209 48 70 60
114 54 200 l-3 49 -68 -64 c-71 -66 -112 -125 -128 -185 -17 -59 -74 -114
-203 -193 -27 -17 -192 -11 -446 17 -225 24 -276 40 -377 117 -55 42 -115 74
-140 74 -39 0 -124 51 -216 128 -53 45 -111 88 -129 98 -31 15 -166 141 -421
392 -60 59 -168 175 -242 257 -73 83 -146 163 -163 179 -40 37 -107 47 -139
20z"/>
<path id="aomori-img" d="M10555 11465 c-19 -18 -25 -35 -25 -68 0 -31 -10 -64 -34 -108 -63
-121 -56 -150 41 -157 72 -5 106 10 180 79 55 52 90 62 114 32 10 -11 15 -56
17 -153 4 -150 -6 -190 -52 -211 -20 -9 -30 -6 -66 20 -24 17 -54 31 -68 31
-27 0 -82 -45 -82 -66 0 -6 -9 -23 -21 -38 -30 -38 -67 -35 -111 12 -52 54
-58 71 -58 168 0 145 -44 207 -126 178 -21 -8 -57 -18 -79 -22 -62 -12 -70
-36 -72 -227 -2 -121 -7 -171 -20 -205 -25 -68 -96 -137 -180 -175 -83 -38
-97 -62 -64 -104 12 -14 39 -51 60 -81 60 -85 58 -85 131 -48 l63 33 231 3
231 3 35 41 c31 35 42 41 85 45 67 7 81 -10 87 -99 5 -79 24 -108 72 -108 52
0 132 44 161 88 29 44 57 60 124 69 57 7 88 22 124 61 22 23 25 31 14 35 -8 3
-49 48 -90 99 -41 51 -84 102 -97 113 -12 11 -34 43 -49 70 -25 48 -26 56 -23
184 2 124 1 137 -22 186 -21 43 -27 74 -32 174 -8 147 -13 154 -84 117 -77
-40 -133 -32 -189 28 -33 35 -92 36 -126 1z"/>
<path id="iwate-img" d="M11259 10429 c-36 -35 -74 -50 -162 -64 -31 -5 -44 -15 -70 -51 -40
-57 -117 -97 -189 -98 -42 -1 -54 -5 -69 -26 -29 -39 -39 -137 -39 -375 0
-200 -2 -224 -20 -257 -21 -40 -40 -137 -40 -209 0 -38 5 -50 31 -75 78 -75
175 -254 166 -309 -5 -32 -5 -33 51 -48 32 -9 72 -18 90 -21 36 -6 141 -65
183 -103 14 -13 40 -28 59 -33 33 -9 46 -7 154 22 l50 14 21 69 c27 90 35 103
100 176 73 82 100 143 120 269 9 58 26 146 37 197 24 109 21 146 -23 289 -42
133 -85 216 -155 295 -33 37 -83 109 -112 160 -29 52 -74 121 -100 154 l-47
60 -36 -36z"/>
<path id="akita-img" d="M10653 10414 c-18 -9 -35 -25 -39 -36 -12 -40 -60 -48 -287 -48 -213
0 -214 0 -268 -27 -43 -23 -53 -32 -49 -48 3 -11 5 -74 5 -140 -1 -144 -20
-200 -92 -266 -95 -87 -118 -158 -67 -198 32 -25 81 -27 113 -5 30 21 60 89
61 134 0 48 14 68 33 51 12 -9 16 -40 19 -125 3 -106 5 -114 31 -146 l28 -33
-3 -236 c-3 -222 -4 -238 -25 -278 -13 -23 -23 -45 -23 -48 0 -3 26 -3 58 1
79 8 143 -6 314 -73 177 -69 213 -72 283 -24 81 55 95 71 95 109 0 47 -72 180
-137 254 -29 32 -56 70 -59 85 -10 39 16 193 40 238 19 37 21 53 18 200 -4
233 10 385 42 442 18 31 23 50 17 61 -5 10 -11 48 -14 86 -6 88 -26 103 -94
70z"/>
<path id="yamagata-img" d="M10081 8858 c1 -101 -30 -198 -97 -298 -35 -52 -45 -79 -54 -138 -9
-56 -9 -76 0 -87 7 -8 51 -40 98 -71 47 -31 107 -78 134 -105 42 -42 48 -53
48 -89 0 -36 -6 -46 -64 -103 -57 -56 -64 -67 -71 -114 -8 -61 14 -121 62
-166 39 -37 103 -46 269 -38 148 7 153 9 200 88 l26 45 -56 52 c-31 28 -56 60
-56 69 0 30 29 76 85 137 30 32 63 77 75 100 47 92 54 404 11 488 -27 53 -38
131 -22 160 11 21 9 22 -23 22 -19 0 -108 28 -198 62 -155 59 -168 63 -266 66
l-102 4 1 -84z"/>
<path id="miyagi-img" d="M10790 8864 c-90 -60 -100 -72 -100 -121 0 -24 11 -71 26 -105 25
-59 25 -66 22 -252 -3 -181 -4 -194 -29 -247 -14 -30 -56 -89 -93 -129 -80
-90 -82 -105 -13 -164 l48 -41 32 19 c99 58 140 62 231 22 59 -26 135 -34 203
-20 l30 6 -14 46 c-7 26 -16 101 -20 168 -6 114 -5 124 17 162 25 44 126 134
192 170 50 27 90 28 147 2 54 -25 78 -25 90 -2 8 14 5 28 -9 53 -47 82 -59
108 -75 162 -9 32 -17 84 -18 117 -1 33 -4 60 -5 60 -2 0 -35 -10 -74 -21 -95
-29 -143 -23 -210 28 -86 64 -126 85 -196 100 -126 27 -123 27 -182 -13z"/>
<g id="niigata-img">
<path d="M9879 8288 c-19 -37 -23 -63 -28 -183 -5 -126 -9 -146 -33 -195 -33
-66 -86 -133 -145 -180 -95 -76 -160 -137 -199 -185 -51 -62 -62 -83 -79 -148
-8 -29 -34 -95 -58 -147 -25 -53 -50 -115 -57 -139 -17 -65 -45 -113 -98 -167
-57 -58 -164 -145 -242 -197 -30 -20 -87 -59 -125 -87 -39 -27 -101 -60 -137
-73 l-66 -23 62 -61 c75 -75 110 -87 140 -51 45 54 101 60 132 13 l16 -24 31
20 c18 10 54 22 81 25 59 8 88 32 154 129 26 38 60 76 75 83 59 28 128 -24
179 -135 68 -152 141 -136 213 48 14 34 36 76 50 94 29 39 100 69 145 63 24
-4 30 -1 25 9 -3 8 -5 21 -5 28 0 8 -20 39 -45 70 -61 74 -67 93 -69 207 -1
93 0 99 25 124 17 16 45 29 75 35 63 12 132 47 157 81 14 19 22 51 27 108 5
62 15 95 38 142 l32 61 -31 35 c-44 50 -69 109 -69 165 0 61 9 77 81 154 34
35 59 70 59 82 0 30 -73 107 -150 156 -36 24 -80 57 -99 74 -19 17 -36 31 -37
31 -1 0 -12 -19 -25 -42z"/>
<path d="M9077 7983 c-22 -25 -56 -107 -63 -155 -5 -26 -17 -49 -35 -66 -40
-35 -38 -68 6 -108 35 -32 35 -32 30 -100 -6 -73 3 -102 26 -88 8 5 52 48 97
96 74 78 83 92 80 120 -3 30 -6 33 -41 36 -30 3 -40 9 -48 29 -10 27 5 94 35
151 21 40 20 65 -2 85 -24 22 -65 22 -85 0z"/>
</g>
<path id="fukushima-img" d="M10714 7808 c-28 -19 -68 -61 -93 -97 -60 -87 -73 -91 -279 -91
l-168 0 -33 -55 c-29 -48 -34 -64 -33 -117 2 -123 -63 -202 -183 -223 -88 -16
-104 -37 -105 -135 0 -98 13 -140 59 -194 33 -37 59 -91 77 -153 4 -15 84 -27
136 -20 56 8 137 65 232 164 44 47 97 94 118 104 73 37 146 20 213 -50 22 -23
84 -82 138 -132 119 -108 141 -113 181 -45 45 77 130 96 224 49 l40 -19 12 39
c6 22 27 62 45 88 18 26 38 70 43 96 18 78 24 214 12 268 -6 28 -19 96 -30
153 -22 118 -61 216 -120 307 -40 62 -42 63 -73 54 -61 -17 -154 -11 -217 16
-84 35 -136 33 -196 -7z"/>
<path id="ishikawa-img" d="M8195 7076 c-17 -7 -47 -34 -68 -59 -27 -33 -49 -49 -77 -57 -22 -5
-59 -15 -82 -21 -33 -9 -59 -28 -115 -87 -95 -98 -102 -135 -47 -243 33 -65
47 -162 42 -292 -3 -104 -5 -116 -37 -177 -19 -36 -54 -95 -77 -131 -24 -36
-44 -69 -44 -72 0 -3 -10 -17 -22 -30 -13 -13 -37 -41 -55 -63 l-32 -39 27
-20 c15 -11 53 -42 85 -70 119 -103 133 -112 183 -119 34 -4 50 -3 53 6 2 6
21 30 42 53 56 61 65 113 49 290 -7 77 -11 210 -9 295 4 172 14 202 70 223 22
9 28 16 23 30 -3 11 2 34 12 52 21 40 11 58 -42 75 -28 9 -34 17 -34 39 0 32
16 49 108 111 126 86 208 243 157 300 -21 23 -66 25 -110 6z"/>
<path id="tochigi-img" d="M10461 6975 c-18 -8 -74 -57 -125 -109 -128 -131 -200 -176 -287
-176 l-38 0 15 -27 c7 -16 14 -50 15 -78 1 -59 13 -94 54 -154 26 -38 30 -53
30 -116 0 -71 1 -74 45 -131 26 -33 77 -85 115 -117 82 -69 90 -70 211 -11 62
31 98 59 184 144 88 86 108 112 113 141 3 19 -2 98 -10 175 -9 76 -15 171 -15
210 l2 71 -84 81 c-110 108 -155 127 -225 97z"/>
<path id="ibaraki-img" d="M11022 6781 c-15 -16 -37 -43 -50 -60 -33 -44 -68 -40 -135 15 -43
36 -49 31 -44 -33 3 -32 10 -120 17 -196 7 -77 9 -155 5 -175 -5 -28 -28 -59
-103 -134 -112 -114 -143 -138 -246 -182 l-76 -33 59 -52 c47 -40 71 -53 113
-61 63 -12 117 -39 172 -86 45 -39 97 -57 130 -44 12 4 34 24 50 44 33 44 59
57 153 81 94 24 133 13 214 -61 38 -35 67 -54 84 -54 14 0 25 3 25 6 0 4 -39
47 -86 97 -68 71 -96 110 -127 175 l-41 85 -6 171 c-3 94 -2 195 2 224 5 29
29 98 53 152 25 55 45 103 45 106 0 14 -90 44 -133 44 -41 0 -53 -5 -75 -29z"/>
<path id="gunma-img" d="M9799 6717 c-34 -22 -40 -32 -98 -158 -37 -78 -52 -94 -121 -119 -37
-13 -75 -40 -124 -87 -100 -95 -116 -119 -116 -177 0 -54 28 -91 77 -102 128
-29 133 -36 133 -184 0 -56 5 -111 11 -123 13 -25 89 -107 100 -107 3 0 18 18
33 40 43 65 214 237 280 281 l61 41 137 -7 138 -7 -81 79 c-109 105 -131 144
-130 229 0 59 -3 71 -34 115 -32 47 -55 120 -55 179 0 44 -8 57 -61 95 -58 42
-101 45 -150 12z"/>
<path id="nagano-img" d="M9288 6653 c-13 -16 -34 -44 -46 -63 -11 -19 -40 -54 -64 -78 -37
-36 -54 -44 -102 -52 -33 -5 -66 -16 -76 -25 -24 -22 -47 -19 -72 10 -28 33
-58 32 -92 -4 -16 -16 -38 -32 -51 -35 -15 -4 -30 -23 -46 -58 -21 -48 -23
-68 -23 -214 -1 -144 -3 -164 -20 -183 -17 -19 -18 -26 -6 -94 7 -43 11 -122
8 -188 -4 -129 -19 -170 -82 -227 -55 -50 -50 -77 25 -142 116 -101 167 -256
141 -430 -5 -36 -8 -67 -6 -69 7 -8 153 -31 198 -31 45 0 51 3 92 48 57 62
153 216 169 270 8 24 26 62 41 84 28 39 28 42 27 183 -1 115 1 146 13 156 10
8 59 12 143 13 142 1 148 3 176 66 l18 39 -53 48 c-70 63 -80 90 -80 218 0 92
-3 108 -20 125 -11 11 -31 20 -45 20 -42 0 -104 31 -127 62 -25 36 -27 101 -5
144 8 16 56 69 106 118 82 80 90 91 77 105 -8 9 -30 48 -50 87 -37 76 -84 124
-120 124 -12 0 -34 -12 -48 -27z"/>
<path id="toyama-img" d="M8482 6528 c-22 -18 -47 -37 -56 -43 -10 -5 -22 -31 -27 -56 -31
-145 -190 -143 -269 3 l-16 28 -34 -29 -35 -29 -5 -173 c-3 -96 -1 -213 5
-261 9 -82 11 -88 32 -88 13 0 29 -10 39 -25 25 -38 49 -31 94 30 22 30 50 60
63 67 15 9 85 15 217 18 l195 5 3 159 c2 140 5 166 26 217 l24 59 -77 75 c-90
89 -115 95 -179 43z"/>
<path id="saitama-img" d="M10020 5981 c-73 -40 -283 -248 -317 -314 -14 -28 -14 -30 19 -64 50
-52 229 -134 204 -94 -9 13 12 62 32 77 29 22 102 16 162 -13 43 -20 71 -26
125 -27 82 -1 256 22 270 35 5 5 19 9 32 9 28 0 29 18 8 109 -22 91 -60 154
-132 221 l-63 57 -102 7 c-57 3 -125 9 -153 11 -38 4 -59 1 -85 -14z"/>
<path id="gifu-img" d="M8253 5894 c-24 -26 -43 -51 -43 -55 0 -5 -14 -15 -30 -24 -32 -16
-54 -11 -80 19 -7 9 -21 16 -31 16 -16 0 -19 -8 -19 -57 0 -68 -24 -125 -69
-167 -26 -25 -31 -37 -31 -78 0 -42 5 -53 45 -98 51 -58 57 -92 24 -134 -29
-37 -86 -63 -163 -76 -105 -17 -164 -48 -192 -102 -13 -25 -12 -31 15 -73 16
-25 39 -71 52 -103 12 -31 31 -67 41 -78 11 -12 28 -57 39 -99 32 -122 64
-155 156 -155 42 0 51 4 74 33 15 18 32 58 38 89 8 39 21 64 42 84 26 25 39
29 103 32 85 5 183 -17 230 -51 28 -20 42 -22 158 -22 69 0 129 3 133 7 4 3 9
58 12 122 6 109 4 120 -22 193 -25 69 -38 87 -107 156 -97 97 -100 114 -30
190 27 29 52 61 57 72 18 45 23 210 10 300 -8 49 -11 93 -9 97 3 4 -77 8 -177
8 l-183 0 -43 -46z"/>
<path id="chiba-img" d="M10540 5809 c30 -59 60 -183 60 -251 0 -65 4 -68 63 -43 78 32 177 6
177 -46 0 -44 -54 -108 -159 -187 l-32 -24 7 -161 c4 -92 13 -179 20 -201 8
-21 14 -60 14 -85 0 -54 12 -71 52 -71 59 0 118 57 118 113 0 27 41 65 145
136 55 37 105 78 112 92 6 14 13 104 16 221 6 248 3 240 151 323 115 64 147
95 101 95 -40 0 -93 29 -121 66 -29 37 -79 64 -121 64 -64 0 -164 -33 -191
-62 -15 -16 -37 -40 -49 -54 -40 -44 -111 -29 -198 41 -53 42 -91 61 -143 69
l-43 6 21 -41z"/>
<path id="fukui-img" d="M7523 5728 c-21 -29 -52 -76 -69 -105 -18 -28 -50 -74 -72 -100 -22
-26 -43 -58 -46 -69 -9 -29 8 -70 48 -119 46 -56 66 -98 66 -140 0 -68 -49
-125 -125 -146 -19 -6 -43 -21 -52 -35 -54 -78 -82 -100 -157 -125 -42 -13
-76 -29 -76 -36 0 -17 58 -62 88 -69 15 -3 36 -7 46 -9 38 -8 76 8 130 56 30
27 73 60 96 73 58 33 175 149 225 224 24 35 58 74 77 87 42 29 119 55 161 55
66 1 157 60 157 103 0 11 -18 36 -39 56 -42 37 -61 75 -61 117 0 21 -5 24 -35
24 -48 0 -87 21 -165 89 -74 65 -145 121 -153 121 -3 0 -23 -24 -44 -52z"/>
<path id="yamanashi-img" d="M9650 5561 c-11 -22 -25 -43 -32 -48 -7 -4 -74 -10 -148 -13 l-135
-5 -1 -140 c0 -77 -5 -151 -11 -165 -10 -23 -4 -34 69 -125 97 -121 138 -165
155 -165 17 0 29 29 43 101 16 84 38 100 152 110 69 6 96 13 103 25 40 66 56
81 113 109 64 31 102 72 102 111 0 37 -56 81 -146 113 -107 39 -139 55 -191
97 -23 19 -44 34 -47 34 -3 0 -15 -18 -26 -39z"/>
<path id="tokyo-img" d="M9970 5560 c-27 -27 -25 -55 6 -77 58 -41 86 -68 95 -90 8 -22 12
-23 128 -23 83 0 129 5 154 15 20 8 60 15 90 15 47 0 55 3 67 26 8 14 27 32
42 40 24 13 28 20 28 59 0 37 -3 45 -18 45 -10 0 -27 -7 -38 -15 -10 -8 -37
-15 -59 -15 -22 0 -78 -7 -125 -15 -98 -18 -154 -11 -240 29 -66 31 -103 33
-130 6z"/>
<path id="kanagawa-img" d="M10365 5363 c-22 -12 -66 -18 -160 -22 -125 -6 -130 -7 -133 -28 -5
-34 -53 -80 -96 -92 -61 -16 -116 -81 -70 -81 8 0 29 -13 45 -29 24 -25 29
-37 29 -80 0 -42 5 -56 30 -84 34 -39 80 -55 80 -28 0 35 22 92 47 122 42 49
95 69 191 69 75 0 85 -2 107 -25 14 -13 25 -33 25 -44 0 -29 27 -51 65 -51 28
0 35 5 50 36 23 48 15 89 -29 155 -36 55 -62 144 -53 180 5 17 0 19 -46 19
-30 0 -65 -7 -82 -17z"/>
<path id="kyoto-img" d="M6634 5069 c-31 -39 -72 -81 -92 -92 l-35 -21 82 -75 c93 -86 102
-114 56 -169 -14 -17 -25 -39 -25 -51 0 -26 46 -51 93 -51 81 0 158 -50 205
-133 43 -75 71 -97 133 -106 30 -4 64 -13 76 -19 13 -7 59 -55 102 -106 l80
-93 72 -7 c80 -7 103 2 77 31 -23 27 -124 232 -137 278 -6 22 -11 70 -11 106
0 54 -6 77 -31 128 -34 68 -30 66 -111 46 -16 -4 -31 -1 -41 9 -8 9 -20 16
-26 16 -25 0 -81 63 -87 98 -20 110 -74 128 -125 41 -33 -57 -64 -60 -93 -9
-18 30 -21 49 -18 132 2 88 0 98 -17 108 -45 24 -68 13 -127 -61z"/>
<path id="shizuoka-img" d="M9284 5128 c-5 -7 -16 -33 -24 -58 -21 -59 -100 -183 -174 -273 -32
-40 -72 -96 -88 -125 -17 -29 -46 -67 -66 -85 -79 -70 -116 -114 -143 -172
-25 -51 -29 -72 -29 -143 0 -76 2 -83 18 -78 50 16 190 25 389 26 256 0 244
-5 261 102 6 37 19 70 38 95 16 21 30 42 31 48 1 5 11 37 23 70 11 33 22 72
25 86 8 45 40 73 138 123 105 54 134 56 164 9 15 -23 18 -47 15 -161 -3 -139
4 -184 40 -235 15 -21 27 -27 47 -25 22 2 27 10 35 44 7 34 20 52 77 100 89
78 98 96 95 215 -1 88 -3 98 -29 128 -15 18 -27 37 -27 42 0 5 -5 9 -12 9 -24
0 -93 40 -107 62 -8 13 -18 49 -22 81 -9 75 -31 101 -79 93 -19 -4 -75 -11
-125 -17 -113 -13 -129 -26 -145 -117 -26 -149 -70 -138 -222 52 -45 56 -84
105 -88 109 -4 5 -12 3 -16 -5z"/>
<path id="shiga-img" d="M7545 4993 c-44 -46 -101 -96 -126 -111 -25 -15 -69 -48 -98 -74
l-51 -46 29 -50 c24 -42 30 -65 38 -159 8 -96 15 -121 47 -189 20 -44 51 -103
68 -131 l32 -53 48 54 c49 55 92 78 172 91 26 4 51 18 73 40 l34 34 -6 161
c-6 162 -22 267 -46 296 -7 9 -36 61 -63 117 -28 56 -55 102 -61 103 -5 0 -46
-37 -90 -83z"/>
<g id="hyogo-img">
<path d="M6161 4979 c-52 -20 -53 -28 -12 -79 77 -97 105 -191 81 -265 -7 -22
-43 -71 -85 -116 -41 -44 -78 -94 -85 -114 -8 -23 -11 -73 -8 -129 3 -82 7
-98 39 -156 31 -55 40 -65 60 -62 69 8 212 2 271 -12 37 -8 107 -18 155 -20
48 -3 111 -12 138 -20 63 -20 117 -20 199 -1 36 9 77 13 91 9 l25 -6 0 96 c0
52 -7 129 -17 171 -14 64 -21 79 -49 100 -19 14 -46 47 -60 73 -15 26 -37 58
-48 71 -29 32 -93 61 -139 61 -61 0 -126 41 -127 81 0 9 13 36 30 60 16 24 30
49 30 56 0 6 -17 26 -37 45 -21 18 -60 55 -88 82 -40 39 -58 49 -90 52 -22 2
-67 10 -100 19 -66 17 -138 19 -174 4z"/>
<path d="M6605 3873 c-22 -25 -53 -60 -69 -77 -49 -52 -66 -88 -66 -139 0 -63
39 -107 94 -107 44 0 64 27 71 96 4 33 15 63 35 90 52 73 59 161 14 178 -29
11 -39 6 -79 -41z"/>
</g>
<path id="tottori-img" d="M6036 4906 c-21 -14 -55 -27 -75 -31 -20 -3 -72 -24 -116 -46 -102
-50 -161 -61 -315 -57 l-125 3 -82 -40 c-64 -31 -84 -46 -88 -65 -20 -87 -28
-101 -95 -167 -63 -63 -70 -73 -70 -109 1 -47 17 -70 59 -85 28 -10 36 -8 71
15 22 14 86 70 143 124 113 108 163 132 269 132 44 0 69 7 123 35 77 40 92 39
145 -10 53 -49 71 -55 173 -55 l95 0 31 47 c56 84 38 176 -56 291 -19 23 -37
42 -41 42 -4 0 -24 -11 -46 -24z"/>
<path id="aichi-img" d="M8141 4814 c-20 -16 -32 -38 -36 -62 -9 -53 -24 -88 -46 -108 -29
-26 -23 -47 26 -97 25 -26 45 -50 45 -56 0 -5 14 -5 36 2 47 14 54 3 54 -94 0
-66 4 -81 30 -122 35 -55 45 -57 126 -21 63 28 137 40 178 30 58 -14 22 -71
-96 -150 -23 -16 -38 -31 -32 -33 6 -2 60 12 121 31 60 19 126 37 145 41 l35
7 5 97 c4 86 9 104 38 160 20 37 62 90 102 129 56 54 128 148 128 166 0 7
-136 17 -325 24 -181 7 -192 8 -235 34 -53 31 -128 48 -210 48 -48 0 -64 -4
-89 -26z"/>
<path id="shimane-img" d="M4935 4810 c-11 -4 -30 -20 -43 -34 -12 -15 -48 -43 -80 -63 -97 -61
-136 -98 -166 -158 -22 -43 -58 -83 -150 -167 -129 -118 -143 -132 -221 -224
-27 -32 -77 -86 -111 -119 -33 -33 -93 -99 -132 -147 -76 -92 -115 -128 -140
-128 -12 0 -14 -12 -10 -65 3 -58 8 -69 38 -101 44 -45 127 -94 161 -94 36 0
55 26 69 95 31 151 89 243 199 317 72 48 80 51 161 58 47 3 94 11 105 17 31
17 69 62 110 133 90 152 102 160 254 160 l110 0 -24 36 c-14 20 -25 46 -25 58
1 40 38 103 85 142 53 44 72 75 81 133 l7 41 -70 0 c-58 0 -73 4 -89 21 -15
16 -16 24 -6 39 16 27 15 47 -4 54 -22 8 -85 6 -109 -4z"/>
<path id="mie-img" d="M7834 4537 c10 -166 -15 -210 -130 -238 -82 -20 -101 -29 -143 -72
-62 -62 -62 -71 2 -136 30 -31 60 -71 66 -90 7 -21 11 -117 11 -251 l0 -217
-32 -64 c-21 -42 -54 -86 -100 -130 -37 -36 -68 -73 -68 -82 0 -33 85 -102
148 -121 21 -7 22 -4 22 41 0 26 3 58 6 70 3 12 46 54 95 93 49 40 96 84 104
100 8 16 15 55 15 89 0 72 17 95 100 139 70 38 221 84 284 88 76 4 144 65 131
117 -10 39 -78 102 -154 144 -36 20 -110 65 -163 101 -118 78 -119 82 -52 212
37 72 54 94 91 118 l45 30 -53 58 c-51 56 -56 59 -112 65 -38 4 -69 14 -89 29
l-31 23 7 -116z"/>
<path id="okayama-img" d="M5725 4580 c-42 -25 -61 -30 -120 -30 -102 -1 -141 -21 -250 -128
-52 -50 -113 -103 -134 -118 -37 -24 -39 -28 -26 -48 7 -11 18 -47 24 -79 12
-64 15 -72 43 -103 10 -12 30 -51 43 -88 14 -37 48 -108 76 -157 l51 -89 63 0
c49 0 66 4 80 20 25 27 61 25 102 -6 28 -21 40 -25 73 -19 48 8 74 28 98 75
12 22 38 46 71 65 29 17 86 56 127 88 l74 59 -30 43 c-50 72 -70 137 -70 224
0 87 17 147 56 198 l25 33 -58 0 c-80 0 -128 15 -172 56 -48 42 -79 43 -146 4z"/>
<path id="osaka-img" d="M7030 4331 c0 -5 7 -44 16 -87 12 -59 15 -100 9 -164 -4 -47 -9 -115
-11 -152 -3 -71 -13 -98 -47 -135 l-20 -23 129 0 129 0 -2 215 c-3 240 1 224
-79 308 -40 40 -52 47 -85 47 -22 0 -39 -4 -39 -9z"/>
<path id="hiroshima-img" d="M4994 4261 c-168 -7 -159 -2 -246 -144 -33 -54 -75 -109 -92 -122
-40 -30 -108 -48 -155 -40 -36 5 -40 4 -132 -50 -77 -45 -146 -136 -178 -236
-12 -36 -10 -39 39 -103 27 -37 50 -71 50 -76 0 -6 19 -24 42 -40 l42 -30 12
27 c13 32 36 47 82 58 51 11 97 -11 147 -70 70 -81 109 -81 195 -1 47 44 91
63 204 86 49 10 68 21 117 66 83 77 135 92 200 59 35 -19 69 -6 69 25 0 11 5
28 11 38 9 14 1 35 -44 112 -31 52 -63 120 -73 150 -9 30 -29 71 -44 90 -41
53 -50 75 -50 118 0 37 -31 95 -48 90 -4 -1 -71 -4 -148 -7z"/>
<path id="nara-img" d="M7252 3983 c4 -115 11 -188 23 -232 14 -54 15 -71 4 -110 -6 -25 -16
-50 -20 -55 -5 -6 -9 -19 -9 -29 0 -11 -8 -26 -17 -33 -14 -9 -19 -31 -21 -93
-2 -45 -1 -92 2 -106 8 -33 82 -65 151 -65 47 0 54 3 59 23 3 12 23 36 46 52
49 37 116 129 137 190 12 38 15 84 11 253 -4 232 -4 230 -81 305 -44 43 -53
47 -73 39 -27 -13 -129 -4 -166 14 -51 26 -51 26 -46 -153z"/>
<path id="yamaguchi-img" d="M3774 3742 c-23 -17 -53 -55 -74 -92 -51 -93 -85 -125 -148 -139 -29
-6 -66 -18 -82 -26 -16 -8 -54 -15 -85 -15 -55 0 -93 -12 -107 -34 -7 -11 -13
-53 -23 -183 l-6 -71 35 -12 c19 -6 40 -18 47 -26 9 -12 23 -14 50 -10 37 6
69 -10 69 -35 0 -5 11 -27 25 -49 32 -50 68 -54 117 -12 18 15 47 36 63 46 17
10 41 29 56 42 35 33 122 48 205 35 87 -13 163 -50 227 -109 49 -45 118 -92
136 -92 5 0 11 41 15 91 7 87 14 114 53 184 21 37 31 165 14 165 -27 0 -85 52
-122 108 -47 73 -69 93 -69 66 0 -11 -9 -33 -19 -51 -28 -45 -69 -51 -134 -19
-113 55 -166 125 -167 219 0 57 -17 62 -76 19z"/>
<path id="wakayama-img" d="M6954 3736 c-3 -9 -38 -39 -76 -67 l-71 -51 9 -87 c4 -47 7 -125 6
-174 -3 -107 9 -133 74 -167 37 -19 55 -37 74 -72 39 -74 98 -137 146 -159 79
-35 129 -58 154 -73 103 -60 142 -60 199 -2 24 25 58 50 75 57 57 23 66 36 66
106 0 53 -3 63 -17 63 -27 0 -117 55 -145 88 -21 25 -33 30 -84 34 -71 5 -154
43 -172 78 -9 16 -12 52 -9 105 3 69 9 92 40 155 24 49 37 89 37 115 0 61 -9
69 -66 60 -58 -8 -153 -8 -200 1 -26 5 -35 2 -40 -10z"/>
<path id="kagawa-img" d="M5804 3626 c-17 -8 -54 -34 -82 -59 -28 -25 -71 -57 -95 -71 -74 -44
-99 -133 -54 -201 12 -19 25 -35 28 -35 3 0 37 20 75 45 65 43 118 65 156 65
10 0 44 9 75 19 32 11 78 22 101 25 54 8 104 33 159 81 38 32 41 38 30 56 -6
11 -30 24 -52 30 -22 6 -54 19 -71 30 -38 23 -57 24 -74 4 -17 -21 -53 -19
-97 5 -44 23 -57 24 -99 6z"/>
<path id="tokushima-img" d="M6175 3469 c-62 -51 -102 -69 -195 -88 -157 -32 -236 -59 -297 -101
-57 -40 -63 -47 -63 -79 0 -34 4 -38 61 -65 41 -20 80 -30 121 -32 75 -5 135
-41 278 -167 l94 -84 54 63 c50 59 153 149 213 188 14 9 34 34 44 56 26 57 8
119 -51 182 -24 26 -44 51 -45 55 -4 60 -11 99 -20 110 -8 8 -33 13 -73 12
-58 0 -64 -2 -121 -50z"/>
<path id="ehime-img" d="M4914 3255 c-50 -51 -74 -98 -74 -147 0 -33 -6 -45 -48 -109 -12 -19
-20 -40 -17 -47 7 -19 -43 -112 -60 -112 -8 0 -64 -47 -124 -104 -114 -109
-137 -122 -261 -149 l-65 -15 135 -1 c164 -1 180 -9 234 -105 42 -77 44 -93
15 -131 -12 -14 -28 -56 -36 -93 -7 -36 -29 -94 -48 -128 -40 -71 -58 -114
-47 -114 4 0 18 17 31 38 39 58 73 92 94 92 11 0 35 -16 54 -36 l34 -36 39 44
c21 23 39 51 40 60 0 9 -11 38 -25 64 -42 79 -38 92 70 197 l95 92 0 53 c0 64
15 94 71 147 48 46 100 123 135 201 16 36 36 63 61 80 88 59 174 103 268 135
55 18 102 34 103 36 10 5 -12 86 -28 105 l-18 22 -36 -32 c-40 -35 -50 -38
-144 -46 -64 -6 -109 -23 -131 -50 -8 -9 -26 -16 -42 -16 -23 0 -39 13 -80 63
-66 78 -76 86 -117 87 -26 0 -42 -10 -78 -45z"/>
<path id="kochi-img" d="M5467 3099 c-43 -16 -120 -54 -171 -84 -73 -43 -96 -62 -106 -87 -27
-69 -112 -198 -155 -236 -47 -41 -69 -83 -60 -113 3 -10 1 -36 -5 -58 -8 -31
-29 -57 -95 -118 -97 -88 -104 -108 -60 -184 14 -24 25 -52 25 -61 0 -9 -22
-41 -50 -71 l-50 -54 38 -54 c47 -68 79 -75 137 -29 43 34 57 39 130 42 43 3
50 6 53 25 2 13 -6 36 -17 52 -36 50 -26 79 49 152 73 71 130 175 140 254 12
99 69 165 143 165 26 0 67 39 91 87 9 18 24 37 34 42 32 17 108 23 165 12 69
-13 121 -47 217 -141 101 -100 126 -101 153 -12 8 26 31 81 50 124 l36 76 -52
49 c-82 76 -158 138 -211 172 -40 25 -61 31 -103 31 -37 0 -69 8 -103 25 -65
33 -124 31 -223 -6z"/>
<path id="fukuoka-img" d="M3243 3046 c-44 -37 -68 -46 -105 -40 -20 4 -49 0 -70 -9 -80 -33
-187 -162 -175 -209 4 -15 -4 -35 -26 -65 -36 -47 -79 -63 -118 -42 -55 29
-113 4 -124 -55 -12 -57 -16 -66 -41 -79 l-25 -13 22 -20 c19 -17 41 -19 225
-24 175 -4 206 -7 221 -22 16 -16 16 -20 1 -50 -8 -18 -54 -74 -101 -124 l-86
-91 20 -19 c12 -11 30 -36 40 -56 11 -21 23 -38 28 -38 5 0 37 16 72 36 37 20
91 40 130 48 119 22 139 52 139 201 0 101 17 130 115 188 47 28 86 63 121 106
l52 65 -44 29 c-63 42 -98 88 -154 205 -54 112 -66 120 -117 78z"/>
<path id="oita-img" d="M3809 2762 c-15 -9 -39 -26 -54 -36 -25 -18 -83 -23 -162 -14 -16 2
-34 -12 -70 -57 -47 -57 -62 -70 -153 -125 -66 -40 -77 -67 -83 -203 l-4 -117
37 -30 c47 -37 55 -37 77 -2 49 79 121 125 162 102 30 -15 39 -39 45 -108 5
-76 32 -133 87 -191 63 -65 95 -81 163 -81 33 0 75 -5 93 -12 29 -11 36 -10
60 10 49 40 106 62 160 62 44 0 55 4 68 24 28 42 29 87 3 132 -82 145 -154
257 -172 268 -11 8 -46 16 -76 20 -40 4 -60 12 -73 28 -24 28 -16 58 31 127
29 42 37 64 36 96 -1 51 -25 88 -69 109 -43 21 -74 20 -106 -2z"/>
<path id="saga-img" d="M2402 2523 c-17 -15 -21 -35 -27 -134 l-6 -116 45 -55 c47 -58 75
-80 116 -93 14 -4 45 -20 70 -35 25 -15 55 -31 68 -35 21 -6 22 -3 22 40 0 92
41 143 105 131 31 -6 37 -2 115 81 45 49 88 100 96 115 13 25 12 28 -5 38 -12
6 -95 10 -203 10 -165 0 -186 2 -216 20 -18 11 -35 27 -38 35 -9 22 -115 21
-142 -2z"/>
<path id="nagasaki-img" d="M2169 2375 c-36 -20 -53 -63 -39 -100 15 -40 161 -183 194 -189 14
-4 37 -8 50 -11 56 -12 146 -116 146 -170 0 -49 -19 -60 -79 -45 -51 12 -61
24 -77 93 -14 59 -103 120 -126 86 -14 -21 -2 -112 21 -155 26 -49 49 -75 85
-99 29 -19 31 -38 11 -117 -7 -25 -5 -28 17 -28 31 0 106 49 152 100 20 22 43
40 51 40 8 0 24 9 36 21 14 14 30 19 57 17 l37 -3 0 -72 c0 -81 10 -99 50 -89
31 8 118 94 140 140 19 36 11 82 -15 96 -28 15 -96 12 -110 -5 -17 -20 -33
-19 -61 4 -20 16 -22 26 -21 79 l2 61 -38 12 c-20 6 -47 20 -60 30 -13 10 -40
23 -60 30 -49 16 -94 51 -142 112 -34 42 -40 57 -40 97 0 46 -1 48 -40 64 -49
20 -106 20 -141 1z"/>
<path id="kumamoto-img" d="M3459 2221 c-19 -21 -42 -51 -52 -65 -24 -35 -45 -33 -100 9 -44 34
-48 35 -70 20 -14 -8 -57 -22 -96 -31 -68 -14 -166 -59 -190 -88 -7 -9 4 -32
45 -86 31 -41 60 -85 65 -98 23 -60 1 -153 -46 -198 l-33 -30 28 -11 c30 -11
40 -42 40 -127 0 -86 -23 -140 -92 -216 -34 -39 -66 -76 -69 -83 -6 -9 23 -12
124 -12 117 0 137 -3 173 -22 23 -12 49 -30 58 -38 15 -15 23 -14 99 15 145
57 147 58 163 96 22 52 29 153 14 200 -7 21 -25 60 -41 85 -33 52 -37 102 -12
139 9 14 44 54 77 90 34 36 79 91 100 123 l40 57 -22 28 c-47 58 -75 126 -80
192 -6 77 -14 90 -57 90 -26 0 -40 -9 -66 -39z"/>
<path id="miyazaki-img" d="M4103 1930 c-18 -4 -49 -22 -69 -40 -30 -26 -42 -31 -68 -26 -17 4
-67 10 -112 14 -58 6 -90 15 -112 30 -16 12 -34 22 -39 22 -4 -1 -26 -27 -48
-58 -22 -31 -68 -86 -101 -122 -94 -100 -103 -128 -58 -193 52 -78 66 -161 43
-266 -13 -64 -51 -106 -110 -121 -106 -29 -162 -65 -129 -85 6 -4 28 -41 50
-84 51 -103 77 -132 175 -196 46 -30 97 -71 113 -90 35 -40 56 -103 50 -153
-4 -30 2 -41 38 -79 23 -23 50 -43 59 -43 27 0 71 55 85 107 9 31 16 150 20
338 l6 290 42 95 c35 78 45 112 52 190 15 148 33 192 111 275 49 52 69 89 69
128 0 12 7 34 14 50 15 27 15 27 -17 26 -18 -1 -46 -4 -64 -9z"/>
<path id="okinawa-img" d="M9221 1484 c-11 -14 -29 -54 -41 -90 -36 -107 -68 -133 -184 -149
l-48 -7 31 -32 c17 -17 31 -40 31 -51 0 -36 -40 -101 -85 -138 -48 -41 -55
-64 -30 -107 19 -34 19 -85 -1 -116 -21 -31 -14 -96 14 -133 26 -36 62 -38
101 -6 40 35 42 80 4 125 -38 46 -25 75 50 112 32 16 57 35 57 44 0 8 -16 30
-35 48 -19 19 -35 38 -35 44 0 6 14 27 30 45 20 23 30 45 30 66 0 23 9 40 30
59 122 107 190 194 190 241 0 67 -69 96 -109 45z"/>
<path id="kagoshima-img" d="M2915 1183 l-60 -4 -57 -84 c-55 -79 -58 -87 -58 -143 0 -34 5 -73
11 -89 6 -15 12 -36 15 -47 6 -31 34 -67 69 -87 37 -22 65 -79 65 -135 0 -49
-25 -103 -68 -147 -34 -35 -37 -43 -37 -93 0 -50 3 -59 33 -85 22 -20 43 -29
67 -29 19 0 77 -9 130 -21 53 -12 107 -18 120 -15 45 11 70 98 44 149 -7 12
-32 45 -56 74 -106 125 -100 166 40 264 68 48 118 62 132 39 11 -18 -15 -40
-46 -40 -38 0 -53 -36 -44 -107 6 -46 11 -56 52 -89 76 -62 100 -123 72 -177
-7 -12 -29 -41 -50 -63 -53 -59 -72 -99 -59 -124 21 -39 106 -20 180 40 25 20
66 49 92 64 60 33 69 51 79 148 9 89 25 129 57 143 28 12 35 35 27 85 -10 59
-42 99 -125 157 -125 86 -155 118 -204 211 -49 96 -111 167 -163 189 -38 15
-161 23 -258 16z"/>
</g>
</svg>
