<?xml version="1.0" standalone="no"?>
<!DOCTYPE svg PUBLIC "-//W3C//DTD SVG 20010904//EN"
 "http://www.w3.org/TR/2001/REC-SVG-20010904/DTD/svg10.dtd">
<svg version="1.0" xmlns="http://www.w3.org/2000/svg"
 width="826.000000pt" height="826.000000pt" viewBox="0 0 826.000000 826.000000"
 preserveAspectRatio="xMidYMid meet">

<g transform="translate(0.000000,826.000000) scale(0.100000,-0.100000)"
fill="#be0029" stroke="none">
<path d="M3407 8188 c-76 -81 -148 -184 -242 -348 -373 -648 -529 -1361 -416
-1911 10 -49 17 -89 15 -89 -3 0 -22 11 -44 25 -64 40 -276 130 -386 164 -133
41 -295 76 -447 98 -179 25 -704 25 -867 -1 -336 -53 -529 -120 -589 -205
l-22 -31 75 -147 c110 -216 336 -679 336 -689 0 -11 -19 -22 -335 -189 -411
-219 -458 -244 -468 -254 -23 -23 106 -230 253 -406 463 -555 1049 -961 1573
-1089 l128 -31 -42 -40 c-23 -22 -79 -85 -126 -140 -341 -404 -582 -958 -675
-1550 -6 -44 -12 -150 -12 -235 -1 -172 15 -248 57 -288 l23 -22 440 73 c241
41 442 71 445 68 6 -5 94 -564 130 -821 16 -116 21 -124 71 -116 158 25 536
231 866 470 423 307 736 631 927 959 21 37 42 67 46 67 4 0 13 -17 19 -37 33
-102 173 -366 261 -492 91 -130 262 -322 379 -425 96 -84 271 -211 390 -282
322 -192 693 -305 824 -250 40 17 41 20 62 201 8 75 114 738 117 742 2 2 89
-11 193 -27 239 -39 660 -100 689 -100 21 0 24 7 35 82 16 105 16 362 1 543
-59 704 -263 1322 -568 1728 -41 55 -73 100 -71 101 2 2 46 11 98 21 531 100
1090 419 1436 820 105 121 149 185 202 292 45 89 65 156 55 191 -4 16 -48 45
-162 105 -86 46 -235 126 -331 177 -96 52 -207 111 -247 132 l-72 39 25 57
c14 31 56 118 94 192 91 178 290 591 290 601 0 18 -100 70 -206 108 -224 79
-508 139 -769 162 -182 16 -517 6 -670 -20 -120 -20 -313 -70 -370 -96 -16 -7
-72 -31 -124 -54 -51 -22 -117 -57 -147 -77 -30 -21 -56 -35 -58 -33 -2 2 4
47 15 99 47 238 46 497 -2 780 -75 445 -280 957 -510 1271 -72 98 -176 189
-217 189 -5 0 -153 -150 -328 -332 -175 -183 -321 -333 -324 -333 -3 0 -149
150 -324 333 -175 182 -324 332 -330 332 -7 0 -38 -28 -69 -62z"/>
</g>
</svg>
