<?xml version="1.0" standalone="no"?>
<!DOCTYPE svg PUBLIC "-//W3C//DTD SVG 20010904//EN"
 "http://www.w3.org/TR/2001/REC-SVG-20010904/DTD/svg10.dtd">
<svg version="1.0" xmlns="http://www.w3.org/2000/svg"
 width="1584.000000pt" height="1584.000000pt" viewBox="0 0 1584.000000 1584.000000"
 preserveAspectRatio="xMidYMid meet" fill="grey" stroke="lightblue" stroke-width="10px">

<g id="my-path" transform="translate(0.000000,1584.000000) scale(0.100000,-0.100000)">
<path d="M7575 5039 c-148 -126 -209 -175 -262 -213 -62 -44 -72 -60 -51 -84
30 -35 49 -110 58 -225 10 -118 10 -120 60 -206 27 -48 50 -91 50 -97 0 -6 13
-23 29 -38 27 -26 29 -27 35 -9 14 43 112 106 183 119 61 10 123 51 140 92 24
58 6 350 -26 427 -14 34 -142 295 -144 295 -1 -1 -33 -28 -72 -61z"/>
</g>
</svg>
